SplineFontDB: 3.2
FontName: FuturaBT-Heavy
FullName: Futura Heavy BT
FamilyName: Futura Hv BT
Weight: Book
Copyright: Copyright 1990-1993 Bitstream Inc.  All rights reserved.
Version: mfgpctt-v1.52 Tuesday, January 12, 1993 3:42:48 pm (EST)
ItalicAngle: 0
UnderlinePosition: -318
UnderlineWidth: 190
Ascent: 1638
Descent: 410
InvalidEm: 0
sfntRevision: 0x00010001
LayerCount: 2
Layer: 0 1 "Back" 1
Layer: 1 1 "Fore" 0
XUID: [1021 78 1171468592 5117736]
StyleMap: 0x0040
FSType: 14
OS2Version: 0
OS2_WeightWidthSlopeOnly: 0
OS2_UseTypoMetrics: 0
CreationTime: 722041873
ModificationTime: 722041873
PfmFamily: 17
TTFWeight: 400
TTFWidth: 5
LineGap: 0
VLineGap: 0
Panose: 2 11 7 2 2 2 4 2 2 4
OS2TypoAscent: 1556
OS2TypoAOffset: 0
OS2TypoDescent: 492
OS2TypoDOffset: 0
OS2TypoLinegap: 410
OS2WinAscent: 1972
OS2WinAOffset: 0
OS2WinDescent: 483
OS2WinDOffset: 0
HheadAscent: 1972
HheadAOffset: 0
HheadDescent: -483
HheadDOffset: 0
OS2SubXSize: 1351
OS2SubYSize: 1228
OS2SubXOff: 0
OS2SubYOff: -432
OS2SupXSize: 1351
OS2SupYSize: 1228
OS2SupXOff: 0
OS2SupYOff: 575
OS2StrikeYSize: 190
OS2StrikeYPos: 614
OS2FamilyClass: 2051
OS2Vendor: 'Bits'
OS2UnicodeRanges: 00000000.00000000.00000000.00000000
Lookup: 258 0 0 "'kern' Horizontal Kerning in Latin lookup 0" { "'kern' Horizontal Kerning in Latin lookup 0 subtable"  } ['kern' ('DFLT' <'dflt' > 'latn' <'dflt' > ) ]
DEI: 91125
TtTable: prep
NPUSHW
 255
 640
 291
 254
 3
 290
 254
 3
 289
 254
 3
 288
 254
 3
 287
 286
 254
 5
 286
 254
 3
 284
 125
 3
 283
 282
 23
 5
 283
 150
 3
 282
 23
 3
 282
 -26
 4
 281
 280
 25
 5
 281
 150
 3
 280
 25
 3
 279
 254
 3
 278
 62
 3
 272
 50
 3
 269
 254
 3
 268
 254
 3
 267
 266
 125
 5
 267
 254
 3
 266
 125
 3
 265
 264
 140
 5
 265
 254
 3
 265
 192
 4
 264
 263
 89
 5
 264
 140
 3
 264
 128
 4
 263
 262
 38
 5
 263
 89
 3
 263
 64
 4
 262
 38
 3
 261
 254
 3
 260
 254
 3
 259
 254
 3
 258
 57
 3
 257
 187
 3
 256
 187
 3
 255
 250
 3
 254
 125
 3
 253
 250
 44
 5
 253
 254
 3
 251
 250
 44
 5
 251

StartChar: exclam
Encoding: 33 33 0
Width: 688
GlyphClass: 1
Flags: W
LayerCount: 2
Fore
SplineSet
201 457 m 1,0,-1
 201 1497 l 1,1,-1
 485 1497 l 1,2,-1
 485 457 l 1,3,-1
 201 457 l 1,0,-1
172 133 m 0,4,5
 172 204 172 204 222 253.5 c 128,-1,6
 272 303 272 303 344 303 c 0,7,8
 415 303 415 303 464.5 254 c 128,-1,9
 514 205 514 205 514 133 c 256,10,11
 514 61 514 61 464.5 11 c 128,-1,12
 415 -39 415 -39 344 -39 c 256,13,14
 273 -39 273 -39 222.5 12 c 128,-1,15
 172 63 172 63 172 133 c 0,4,5
EndSplineSet
EndChar

StartChar: quotedbl
Encoding: 34 34 1
Width: 678
GlyphClass: 1
Flags: W
LayerCount: 2
Fore
SplineSet
406 1438 m 1,0,-1
 598 1438 l 1,1,-1
 598 879 l 1,2,-1
 406 879 l 1,3,-1
 406 1438 l 1,0,-1
80 1438 m 1,4,-1
 272 1438 l 1,5,-1
 272 879 l 1,6,-1
 80 879 l 1,7,-1
 80 1438 l 1,4,-1
EndSplineSet
EndChar

StartChar: numbersign
Encoding: 35 35 2
Width: 1575
GlyphClass: 1
Flags: W
LayerCount: 2
Fore
SplineSet
709 848 m 1,0,-1
 621 604 l 1,1,-1
 872 604 l 1,2,-1
 958 848 l 1,3,-1
 709 848 l 1,0,-1
709 1464 m 1,4,-1
 930 1464 l 1,5,-1
 784 1049 l 1,6,-1
 1026 1049 l 1,7,-1
 1174 1464 l 1,8,-1
 1395 1464 l 1,9,-1
 1247 1049 l 1,10,-1
 1530 1049 l 1,11,-1
 1456 848 l 1,12,-1
 1176 848 l 1,13,-1
 1092 606 l 1,14,-1
 1382 606 l 1,15,-1
 1311 406 l 1,16,-1
 1020 406 l 1,17,-1
 872 -10 l 1,18,-1
 651 -10 l 1,19,-1
 799 406 l 1,20,-1
 555 406 l 1,21,-1
 406 -10 l 1,22,-1
 186 -10 l 1,23,-1
 332 406 l 1,24,-1
 45 406 l 1,25,-1
 121 606 l 1,26,-1
 403 606 l 1,27,-1
 489 848 l 1,28,-1
 190 848 l 1,29,-1
 264 1049 l 1,30,-1
 561 1049 l 1,31,-1
 709 1464 l 1,4,-1
EndSplineSet
EndChar

StartChar: dollar
Encoding: 36 36 3
Width: 1255
GlyphClass: 1
Flags: W
LayerCount: 2
Fore
SplineSet
111 219 m 1,0,-1
 285 406 l 1,1,2
 321 326 321 326 392 283 c 128,-1,3
 463 240 463 240 559 240 c 1,4,-1
 559 629 l 1,5,6
 325 728 325 728 228 829.5 c 128,-1,7
 131 931 131 931 131 1071 c 0,8,9
 131 1230 131 1230 257 1339 c 128,-1,10
 383 1448 383 1448 590 1464 c 1,11,-1
 590 1579 l 1,12,-1
 684 1579 l 1,13,-1
 684 1463 l 1,14,15
 800 1459 800 1459 889 1415 c 128,-1,16
 978 1371 978 1371 1047 1282 c 1,17,-1
 862 1114 l 1,18,19
 828 1170 828 1170 786.5 1198.5 c 128,-1,20
 745 1227 745 1227 684 1235 c 1,21,-1
 684 868 l 1,22,23
 896 783 896 783 996 677 c 128,-1,24
 1096 571 1096 571 1096 432 c 0,25,26
 1096 255 1096 255 977 139.5 c 128,-1,27
 858 24 858 24 655 6 c 1,28,-1
 655 -152 l 1,29,-1
 559 -152 l 1,30,-1
 559 4 l 1,31,32
 398 9 398 9 283.5 64 c 128,-1,33
 169 119 169 119 111 219 c 1,0,-1
590 1235 m 1,34,35
 519 1220 519 1220 477.5 1176.5 c 128,-1,36
 436 1133 436 1133 436 1075 c 0,37,38
 436 1021 436 1021 474.5 978 c 128,-1,39
 513 935 513 935 590 903 c 1,40,-1
 590 1235 l 1,34,35
655 250 m 1,41,42
 724 269 724 269 763.5 315.5 c 128,-1,43
 803 362 803 362 803 424 c 0,44,45
 803 478 803 478 769 516 c 128,-1,46
 735 554 735 554 655 588 c 1,47,-1
 655 250 l 1,41,42
EndSplineSet
EndChar

StartChar: percent
Encoding: 37 37 4
Width: 1731
GlyphClass: 1
Flags: W
LayerCount: 2
Fore
SplineSet
741 1075 m 0,0,1
 741 884 741 884 648.5 777 c 128,-1,2
 556 670 556 670 391 670 c 0,3,4
 225 670 225 670 132 776.5 c 128,-1,5
 39 883 39 883 39 1075 c 0,6,7
 39 1264 39 1264 132.5 1371.5 c 128,-1,8
 226 1479 226 1479 391 1479 c 0,9,10
 558 1479 558 1479 649.5 1373 c 128,-1,11
 741 1267 741 1267 741 1075 c 0,0,1
254 1075 m 0,12,13
 254 950 254 950 290 881.5 c 128,-1,14
 326 813 326 813 391 813 c 0,15,16
 459 813 459 813 493.5 879.5 c 128,-1,17
 528 946 528 946 528 1075 c 0,18,19
 528 1202 528 1202 493 1268.5 c 128,-1,20
 458 1335 458 1335 391 1335 c 0,21,22
 325 1335 325 1335 289.5 1268 c 128,-1,23
 254 1201 254 1201 254 1075 c 0,12,13
510 -39 m 1,24,-1
 360 -39 l 1,25,-1
 1217 1479 l 1,26,-1
 1366 1479 l 1,27,-1
 510 -39 l 1,24,-1
1692 367 m 0,28,29
 1692 176 1692 176 1598.5 68.5 c 128,-1,30
 1505 -39 1505 -39 1339 -39 c 256,31,32
 1173 -39 1173 -39 1080 68 c 128,-1,33
 987 175 987 175 987 367 c 0,34,35
 987 556 987 556 1080.5 663 c 128,-1,36
 1174 770 1174 770 1339 770 c 0,37,38
 1507 770 1507 770 1599.5 664.5 c 128,-1,39
 1692 559 1692 559 1692 367 c 0,28,29
1202 365 m 256,40,41
 1202 240 1202 240 1238 172 c 128,-1,42
 1274 104 1274 104 1339 104 c 0,43,44
 1407 104 1407 104 1443 171.5 c 128,-1,45
 1479 239 1479 239 1479 367 c 0,46,47
 1479 493 1479 493 1443.5 560 c 128,-1,48
 1408 627 1408 627 1341 627 c 0,49,50
 1275 627 1275 627 1238.5 558.5 c 128,-1,51
 1202 490 1202 490 1202 365 c 256,40,41
EndSplineSet
EndChar

StartChar: ampersand
Encoding: 38 38 5
Width: 1464
GlyphClass: 1
Flags: W
LayerCount: 2
Fore
SplineSet
614 934 m 1,0,-1
 666 965 l 2,1,2
 723 1000 723 1000 751.5 1043.5 c 128,-1,3
 780 1087 780 1087 780 1139 c 0,4,5
 780 1202 780 1202 741.5 1241 c 128,-1,6
 703 1280 703 1280 643 1280 c 0,7,8
 578 1280 578 1280 538 1240.5 c 128,-1,9
 498 1201 498 1201 498 1137 c 0,10,11
 498 1108 498 1108 509.5 1078 c 128,-1,12
 521 1048 521 1048 543 1022 c 2,13,-1
 614 934 l 1,0,-1
819 317 m 1,14,-1
 543 649 l 1,15,-1
 512 627 l 2,16,17
 437 572 437 572 402 518 c 128,-1,18
 367 464 367 464 367 403 c 0,19,20
 367 323 367 323 428 264 c 128,-1,21
 489 205 489 205 573 205 c 0,22,23
 649 205 649 205 712 233.5 c 128,-1,24
 775 262 775 262 819 317 c 1,14,-1
1094 0 m 1,25,-1
 969 143 l 1,26,27
 872 48 872 48 778.5 6.5 c 128,-1,28
 685 -35 685 -35 567 -35 c 0,29,30
 351 -35 351 -35 223.5 80 c 128,-1,31
 96 195 96 195 96 385 c 0,32,33
 96 510 96 510 172.5 616 c 128,-1,34
 249 722 249 722 406 815 c 1,35,36
 323 897 323 897 288.5 972 c 128,-1,37
 254 1047 254 1047 254 1135 c 0,38,39
 254 1284 254 1284 360.5 1373 c 128,-1,40
 467 1462 467 1462 647 1462 c 0,41,42
 820 1462 820 1462 922 1378 c 128,-1,43
 1024 1294 1024 1294 1024 1153 c 0,44,45
 1024 1056 1024 1056 964.5 974 c 128,-1,46
 905 892 905 892 756 791 c 1,47,-1
 1004 504 l 1,48,49
 1068 565 1068 565 1120 620.5 c 128,-1,50
 1172 676 1172 676 1217 731 c 1,51,-1
 1378 559 l 1,52,53
 1327 502 1327 502 1273 444.5 c 128,-1,54
 1219 387 1219 387 1155 324 c 1,55,-1
 1423 0 l 1,56,-1
 1094 0 l 1,25,-1
EndSplineSet
EndChar

StartChar: quotesingle
Encoding: 39 39 6
Width: 352
GlyphClass: 1
Flags: W
LayerCount: 2
Fore
SplineSet
80 1438 m 1,0,-1
 272 1438 l 1,1,-1
 272 879 l 1,2,-1
 80 879 l 1,3,-1
 80 1438 l 1,0,-1
EndSplineSet
EndChar

StartChar: parenleft
Encoding: 40 40 7
Width: 688
GlyphClass: 1
Flags: W
LayerCount: 2
Fore
SplineSet
627 1466 m 1,0,1
 519 1250 519 1250 467.5 1019.5 c 128,-1,2
 416 789 416 789 416 528 c 0,3,4
 416 241 416 241 467 13.5 c 128,-1,5
 518 -214 518 -214 627 -416 c 1,6,-1
 401 -469 l 1,7,8
 284 -250 284 -250 224 -2 c 128,-1,9
 164 246 164 246 164 514 c 0,10,11
 164 808 164 808 222.5 1053.5 c 128,-1,12
 281 1299 281 1299 401 1516 c 1,13,-1
 627 1466 l 1,0,1
EndSplineSet
EndChar

StartChar: parenright
Encoding: 41 41 8
Width: 688
GlyphClass: 1
Flags: W
LayerCount: 2
Fore
SplineSet
61 1466 m 1,0,-1
 287 1516 l 1,1,2
 406 1304 406 1304 465 1053.5 c 128,-1,3
 524 803 524 803 524 514 c 0,4,5
 524 246 524 246 464 -2 c 128,-1,6
 404 -250 404 -250 287 -469 c 1,7,-1
 61 -416 l 1,8,9
 170 -214 170 -214 221 13.5 c 128,-1,10
 272 241 272 241 272 528 c 0,11,12
 272 791 272 791 220.5 1020 c 128,-1,13
 169 1249 169 1249 61 1466 c 1,0,-1
EndSplineSet
EndChar

StartChar: asterisk
Encoding: 42 42 9
Width: 973
GlyphClass: 1
Flags: W
LayerCount: 2
Fore
SplineSet
215 834 m 1,0,-1
 129 971 l 1,1,-1
 362 1092 l 1,2,-1
 133 1212 l 1,3,-1
 215 1350 l 1,4,-1
 424 1200 l 1,5,-1
 410 1464 l 1,6,-1
 571 1464 l 1,7,-1
 557 1204 l 1,8,-1
 762 1350 l 1,9,-1
 842 1212 l 1,10,-1
 618 1090 l 1,11,-1
 838 975 l 1,12,-1
 762 836 l 1,13,-1
 555 983 l 1,14,-1
 571 733 l 1,15,-1
 412 733 l 1,16,-1
 428 979 l 1,17,-1
 215 834 l 1,0,-1
EndSplineSet
EndChar

StartChar: plus
Encoding: 43 43 10
Width: 1706
GlyphClass: 1
Flags: W
LayerCount: 2
Fore
SplineSet
752 1221 m 1,0,-1
 954 1221 l 1,1,-1
 954 711 l 1,2,-1
 1452 711 l 1,3,-1
 1452 512 l 1,4,-1
 954 512 l 1,5,-1
 954 0 l 1,6,-1
 752 0 l 1,7,-1
 752 512 l 1,8,-1
 254 512 l 1,9,-1
 254 711 l 1,10,-1
 752 711 l 1,11,-1
 752 1221 l 1,0,-1
EndSplineSet
EndChar

StartChar: comma
Encoding: 44 44 11
Width: 629
GlyphClass: 1
Flags: W
LayerCount: 2
Fore
SplineSet
63 -332 m 1,0,-1
 256 295 l 1,1,-1
 563 295 l 1,2,-1
 254 -332 l 1,3,-1
 63 -332 l 1,0,-1
EndSplineSet
EndChar

StartChar: hyphen
Encoding: 45 45 12
Width: 854
GlyphClass: 1
Flags: W
LayerCount: 2
Fore
SplineSet
147 362 m 1,0,-1
 147 614 l 1,1,-1
 707 614 l 1,2,-1
 707 362 l 1,3,-1
 147 362 l 1,0,-1
EndSplineSet
EndChar

StartChar: period
Encoding: 46 46 13
Width: 629
GlyphClass: 1
Flags: W
LayerCount: 2
Fore
SplineSet
141 141 m 0,0,1
 141 213 141 213 191.5 264 c 128,-1,2
 242 315 242 315 313 315 c 256,3,4
 384 315 384 315 434.5 264 c 128,-1,5
 485 213 485 213 485 141 c 0,6,7
 485 70 485 70 435 20.5 c 128,-1,8
 385 -29 385 -29 313 -29 c 0,9,10
 242 -29 242 -29 191.5 21 c 128,-1,11
 141 71 141 71 141 141 c 0,0,1
EndSplineSet
EndChar

StartChar: slash
Encoding: 47 47 14
Width: 930
GlyphClass: 1
Flags: W
LayerCount: 2
Fore
SplineSet
0 -190 m 1,0,-1
 717 1497 l 1,1,-1
 930 1497 l 1,2,-1
 213 -190 l 1,3,-1
 0 -190 l 1,0,-1
EndSplineSet
EndChar

StartChar: zero
Encoding: 48 48 15
Width: 1255
GlyphClass: 1
Flags: W
LayerCount: 2
Fore
SplineSet
1169 721 m 0,0,1
 1169 363 1169 363 1026 162 c 128,-1,2
 883 -39 883 -39 629 -39 c 0,3,4
 373 -39 373 -39 230.5 160.5 c 128,-1,5
 88 360 88 360 88 721 c 0,6,7
 88 1077 88 1077 231.5 1278 c 128,-1,8
 375 1479 375 1479 629 1479 c 0,9,10
 886 1479 886 1479 1027.5 1280.5 c 128,-1,11
 1169 1082 1169 1082 1169 721 c 0,0,1
391 719 m 0,12,13
 391 483 391 483 452 357 c 128,-1,14
 513 231 513 231 627 231 c 0,15,16
 744 231 744 231 804 356 c 128,-1,17
 864 481 864 481 864 723 c 0,18,19
 864 962 864 962 804 1086 c 128,-1,20
 744 1210 744 1210 629 1210 c 0,21,22
 513 1210 513 1210 452 1084 c 128,-1,23
 391 958 391 958 391 719 c 0,12,13
EndSplineSet
EndChar

StartChar: one
Encoding: 49 49 16
Width: 1255
GlyphClass: 1
Flags: W
LayerCount: 2
Fore
SplineSet
512 0 m 1,0,-1
 512 1204 l 1,1,-1
 219 1204 l 1,2,-1
 342 1450 l 1,3,-1
 807 1450 l 1,4,-1
 807 0 l 1,5,-1
 512 0 l 1,0,-1
EndSplineSet
EndChar

StartChar: two
Encoding: 50 50 17
Width: 1255
GlyphClass: 1
Flags: W
LayerCount: 2
Fore
SplineSet
1094 242 m 1,0,-1
 1094 0 l 1,1,-1
 80 0 l 1,2,-1
 600 682 l 2,3,4
 708 823 708 823 750.5 904 c 128,-1,5
 793 985 793 985 793 1047 c 0,6,7
 793 1133 793 1133 741.5 1182 c 128,-1,8
 690 1231 690 1231 600 1231 c 0,9,10
 516 1231 516 1231 466 1169.5 c 128,-1,11
 416 1108 416 1108 416 1004 c 2,12,-1
 416 997 l 1,13,-1
 121 997 l 1,14,-1
 121 1022 l 2,15,16
 121 1240 121 1240 246 1359.5 c 128,-1,17
 371 1479 371 1479 600 1479 c 0,18,19
 834 1479 834 1479 964 1372 c 128,-1,20
 1094 1265 1094 1265 1094 1073 c 0,21,22
 1094 857 1094 857 756 435 c 1,23,-1
 735 410 l 1,24,-1
 600 242 l 1,25,-1
 1094 242 l 1,0,-1
EndSplineSet
EndChar

StartChar: three
Encoding: 51 51 18
Width: 1255
GlyphClass: 1
Flags: W
LayerCount: 2
Fore
SplineSet
106 387 m 1,0,-1
 395 387 l 1,1,-1
 395 383 l 2,2,3
 395 304 395 304 454.5 254.5 c 128,-1,4
 514 205 514 205 610 205 c 0,5,6
 721 205 721 205 781.5 260 c 128,-1,7
 842 315 842 315 842 416 c 0,8,9
 842 523 842 523 779.5 578 c 128,-1,10
 717 633 717 633 596 633 c 0,11,12
 590 633 590 633 577 632 c 128,-1,13
 564 631 564 631 557 631 c 1,14,-1
 557 887 l 1,15,16
 563 887 563 887 575 886 c 128,-1,17
 587 885 587 885 592 885 c 0,18,19
 700 885 700 885 754.5 931 c 128,-1,20
 809 977 809 977 809 1069 c 0,21,22
 809 1147 809 1147 759.5 1195 c 128,-1,23
 710 1243 710 1243 629 1243 c 0,24,25
 543 1243 543 1243 494 1204 c 128,-1,26
 445 1165 445 1165 436 1092 c 1,27,-1
 158 1092 l 1,28,29
 169 1278 169 1278 293 1378.5 c 128,-1,30
 417 1479 417 1479 639 1479 c 0,31,32
 852 1479 852 1479 977 1374 c 128,-1,33
 1102 1269 1102 1269 1102 1090 c 0,34,35
 1102 965 1102 965 1034.5 877.5 c 128,-1,36
 967 790 967 790 856 770 c 1,37,38
 985 742 985 742 1061 641 c 128,-1,39
 1137 540 1137 540 1137 395 c 0,40,41
 1137 194 1137 194 994 77.5 c 128,-1,42
 851 -39 851 -39 604 -39 c 0,43,44
 379 -39 379 -39 242.5 75 c 128,-1,45
 106 189 106 189 106 375 c 2,46,-1
 106 387 l 1,0,-1
EndSplineSet
EndChar

StartChar: four
Encoding: 52 52 19
Width: 1255
GlyphClass: 1
Flags: W
LayerCount: 2
Fore
SplineSet
752 0 m 1,0,-1
 752 281 l 1,1,-1
 47 281 l 1,2,-1
 47 416 l 1,3,-1
 752 1479 l 1,4,-1
 1020 1479 l 1,5,-1
 1020 489 l 1,6,-1
 1174 489 l 1,7,-1
 1174 281 l 1,8,-1
 1020 281 l 1,9,-1
 1020 0 l 1,10,-1
 752 0 l 1,0,-1
756 489 m 1,11,-1
 756 993 l 2,12,13
 756 1067 756 1067 758.5 1105 c 128,-1,14
 761 1143 761 1143 766 1175 c 1,15,16
 747 1124 747 1124 721 1073 c 128,-1,17
 695 1022 695 1022 664 973 c 2,18,-1
 348 489 l 1,19,-1
 756 489 l 1,11,-1
EndSplineSet
EndChar

StartChar: five
Encoding: 53 53 20
Width: 1255
GlyphClass: 1
Flags: W
LayerCount: 2
Fore
SplineSet
156 317 m 1,0,1
 259 248 259 248 333 223.5 c 128,-1,2
 407 199 407 199 494 199 c 0,3,4
 639 199 639 199 722 270.5 c 128,-1,5
 805 342 805 342 805 465 c 0,6,7
 805 593 805 593 724 662 c 128,-1,8
 643 731 643 731 492 731 c 0,9,10
 412 731 412 731 344 709.5 c 128,-1,11
 276 688 276 688 219 645 c 1,12,-1
 150 688 l 1,13,-1
 332 1450 l 1,14,-1
 1087 1450 l 1,15,-1
 1087 1204 l 1,16,-1
 522 1204 l 1,17,-1
 451 907 l 1,18,19
 502 923 502 923 548.5 930.5 c 128,-1,20
 595 938 595 938 643 938 c 0,21,22
 850 938 850 938 981 808 c 128,-1,23
 1112 678 1112 678 1112 473 c 0,24,25
 1112 237 1112 237 952 99 c 128,-1,26
 792 -39 792 -39 514 -39 c 0,27,28
 391 -39 391 -39 287.5 -10 c 128,-1,29
 184 19 184 19 92 80 c 1,30,-1
 156 317 l 1,0,1
EndSplineSet
EndChar

StartChar: six
Encoding: 54 54 21
Width: 1255
GlyphClass: 1
Flags: W
LayerCount: 2
Fore
SplineSet
403 451 m 0,0,1
 403 344 403 344 464 281.5 c 128,-1,2
 525 219 525 219 629 219 c 0,3,4
 728 219 728 219 789 283 c 128,-1,5
 850 347 850 347 850 451 c 0,6,7
 850 561 850 561 789 623.5 c 128,-1,8
 728 686 728 686 621 686 c 0,9,10
 525 686 525 686 464 620 c 128,-1,11
 403 554 403 554 403 451 c 0,0,1
526 874 m 1,12,13
 567 896 567 896 610 905.5 c 128,-1,14
 653 915 653 915 715 915 c 0,15,16
 902 915 902 915 1021.5 788 c 128,-1,17
 1141 661 1141 661 1141 463 c 0,18,19
 1141 237 1141 237 995.5 99 c 128,-1,20
 850 -39 850 -39 612 -39 c 0,21,22
 388 -39 388 -39 253.5 99 c 128,-1,23
 119 237 119 237 119 465 c 0,24,25
 119 596 119 596 178.5 751 c 128,-1,26
 238 906 238 906 362 1096 c 2,27,-1
 594 1450 l 1,28,-1
 944 1450 l 1,29,-1
 526 874 l 1,12,13
EndSplineSet
EndChar

StartChar: seven
Encoding: 55 55 22
Width: 1255
GlyphClass: 1
Flags: W
LayerCount: 2
Fore
SplineSet
201 0 m 1,0,-1
 786 1204 l 1,1,-1
 127 1204 l 1,2,-1
 127 1450 l 1,3,-1
 1171 1450 l 1,4,-1
 1171 1358 l 1,5,-1
 514 0 l 1,6,-1
 201 0 l 1,0,-1
EndSplineSet
EndChar

StartChar: eight
Encoding: 56 56 23
Width: 1255
GlyphClass: 1
Flags: W
LayerCount: 2
Fore
SplineSet
872 774 m 1,0,1
 997 736 997 736 1069 634 c 128,-1,2
 1141 532 1141 532 1141 393 c 0,3,4
 1141 191 1141 191 1004 76 c 128,-1,5
 867 -39 867 -39 623 -39 c 0,6,7
 382 -39 382 -39 242 76 c 128,-1,8
 102 191 102 191 102 387 c 0,9,10
 102 530 102 530 174 633 c 128,-1,11
 246 736 246 736 373 774 c 1,12,13
 261 821 261 821 208.5 897.5 c 128,-1,14
 156 974 156 974 156 1090 c 0,15,16
 156 1263 156 1263 284 1371 c 128,-1,17
 412 1479 412 1479 623 1479 c 0,18,19
 837 1479 837 1479 963.5 1370.5 c 128,-1,20
 1090 1262 1090 1262 1090 1079 c 0,21,22
 1090 971 1090 971 1034 892.5 c 128,-1,23
 978 814 978 814 872 774 c 1,0,1
625 1241 m 0,24,25
 541 1241 541 1241 490.5 1195 c 128,-1,26
 440 1149 440 1149 440 1073 c 0,27,28
 440 994 440 994 488.5 948.5 c 128,-1,29
 537 903 537 903 621 903 c 0,30,31
 707 903 707 903 756 947.5 c 128,-1,32
 805 992 805 992 805 1071 c 256,33,34
 805 1150 805 1150 756.5 1195.5 c 128,-1,35
 708 1241 708 1241 625 1241 c 0,24,25
623 207 m 0,36,37
 727 207 727 207 786.5 264.5 c 128,-1,38
 846 322 846 322 846 422 c 0,39,40
 846 524 846 524 787 581.5 c 128,-1,41
 728 639 728 639 623 639 c 0,42,43
 519 639 519 639 458 580 c 128,-1,44
 397 521 397 521 397 422 c 256,45,46
 397 323 397 323 457.5 265 c 128,-1,47
 518 207 518 207 623 207 c 0,36,37
EndSplineSet
EndChar

StartChar: nine
Encoding: 57 57 24
Width: 1255
GlyphClass: 1
Flags: W
LayerCount: 2
Fore
SplineSet
856 991 m 0,0,1
 856 1098 856 1098 796 1160.5 c 128,-1,2
 736 1223 736 1223 633 1223 c 0,3,4
 533 1223 533 1223 471.5 1158.5 c 128,-1,5
 410 1094 410 1094 410 991 c 0,6,7
 410 881 410 881 470.5 818.5 c 128,-1,8
 531 756 531 756 639 756 c 0,9,10
 735 756 735 756 795.5 821.5 c 128,-1,11
 856 887 856 887 856 991 c 0,0,1
733 567 m 1,12,13
 691 545 691 545 646.5 534.5 c 128,-1,14
 602 524 602 524 545 524 c 0,15,16
 358 524 358 524 239.5 651 c 128,-1,17
 121 778 121 778 121 977 c 0,18,19
 121 1203 121 1203 265 1341 c 128,-1,20
 409 1479 409 1479 647 1479 c 0,21,22
 872 1479 872 1479 1007.5 1342 c 128,-1,23
 1143 1205 1143 1205 1143 979 c 0,24,25
 1143 846 1143 846 1081.5 688 c 128,-1,26
 1020 530 1020 530 897 346 c 2,27,-1
 666 0 l 1,28,-1
 315 0 l 1,29,-1
 733 567 l 1,12,13
EndSplineSet
EndChar

StartChar: colon
Encoding: 58 58 25
Width: 688
GlyphClass: 1
Flags: W
LayerCount: 2
Fore
SplineSet
172 797 m 256,0,1
 172 868 172 868 222 917.5 c 128,-1,2
 272 967 272 967 344 967 c 0,3,4
 415 967 415 967 464.5 917.5 c 128,-1,5
 514 868 514 868 514 797 c 0,6,7
 514 725 514 725 464.5 675 c 128,-1,8
 415 625 415 625 344 625 c 256,9,10
 273 625 273 625 222.5 675.5 c 128,-1,11
 172 726 172 726 172 797 c 256,0,1
172 143 m 0,12,13
 172 215 172 215 222 264 c 128,-1,14
 272 313 272 313 344 313 c 0,15,16
 415 313 415 313 464.5 264 c 128,-1,17
 514 215 514 215 514 143 c 0,18,19
 514 72 514 72 464.5 21.5 c 128,-1,20
 415 -29 415 -29 344 -29 c 256,21,22
 273 -29 273 -29 222.5 22 c 128,-1,23
 172 73 172 73 172 143 c 0,12,13
EndSplineSet
EndChar

StartChar: semicolon
Encoding: 59 59 26
Width: 688
GlyphClass: 1
Flags: W
LayerCount: 2
Fore
SplineSet
264 797 m 256,0,1
 264 868 264 868 314.5 917.5 c 128,-1,2
 365 967 365 967 436 967 c 0,3,4
 508 967 508 967 558 917.5 c 128,-1,5
 608 868 608 868 608 797 c 0,6,7
 608 725 608 725 558 675 c 128,-1,8
 508 625 508 625 436 625 c 0,9,10
 365 625 365 625 314.5 675.5 c 128,-1,11
 264 726 264 726 264 797 c 256,0,1
80 -332 m 1,12,-1
 270 295 l 1,13,-1
 580 295 l 1,14,-1
 270 -332 l 1,15,-1
 80 -332 l 1,12,-1
EndSplineSet
EndChar

StartChar: less
Encoding: 60 60 27
Width: 1706
GlyphClass: 1
Flags: W
LayerCount: 2
Fore
SplineSet
1442 1194 m 1,0,-1
 1442 975 l 1,1,-1
 549 610 l 1,2,-1
 1442 246 l 1,3,-1
 1442 27 l 1,4,-1
 264 512 l 1,5,-1
 264 711 l 1,6,-1
 1442 1194 l 1,0,-1
EndSplineSet
EndChar

StartChar: equal
Encoding: 61 61 28
Width: 1706
GlyphClass: 1
Flags: W
LayerCount: 2
Fore
SplineSet
254 496 m 1,0,-1
 1452 496 l 1,1,-1
 1452 297 l 1,2,-1
 254 297 l 1,3,-1
 254 496 l 1,0,-1
254 926 m 1,4,-1
 1452 926 l 1,5,-1
 1452 727 l 1,6,-1
 254 727 l 1,7,-1
 254 926 l 1,4,-1
EndSplineSet
EndChar

StartChar: greater
Encoding: 62 62 29
Width: 1706
GlyphClass: 1
Flags: W
LayerCount: 2
Fore
SplineSet
264 1194 m 1,0,-1
 1442 711 l 1,1,-1
 1442 512 l 1,2,-1
 264 27 l 1,3,-1
 264 246 l 1,4,-1
 1159 610 l 1,5,-1
 264 975 l 1,6,-1
 264 1194 l 1,0,-1
EndSplineSet
EndChar

StartChar: question
Encoding: 63 63 30
Width: 1186
GlyphClass: 1
Flags: W
LayerCount: 2
Fore
SplineSet
397 133 m 0,0,1
 397 204 397 204 447.5 253.5 c 128,-1,2
 498 303 498 303 569 303 c 0,3,4
 641 303 641 303 691 253.5 c 128,-1,5
 741 204 741 204 741 133 c 256,6,7
 741 62 741 62 691 11.5 c 128,-1,8
 641 -39 641 -39 569 -39 c 0,9,10
 498 -39 498 -39 447.5 12 c 128,-1,11
 397 63 397 63 397 133 c 0,0,1
707 428 m 1,12,-1
 432 428 l 1,13,-1
 432 856 l 1,14,-1
 520 856 l 2,15,16
 622 856 622 856 678.5 914.5 c 128,-1,17
 735 973 735 973 735 1077 c 0,18,19
 735 1172 735 1172 693.5 1223 c 128,-1,20
 652 1274 652 1274 573 1274 c 256,21,22
 494 1274 494 1274 452 1226 c 128,-1,23
 410 1178 410 1178 410 1085 c 0,24,25
 410 1080 410 1080 411 1070 c 128,-1,26
 412 1060 412 1060 412 1055 c 1,27,-1
 129 1055 l 1,28,-1
 129 1087 l 2,29,30
 129 1273 129 1273 255.5 1385 c 128,-1,31
 382 1497 382 1497 590 1497 c 0,32,33
 793 1497 793 1497 910.5 1382 c 128,-1,34
 1028 1267 1028 1267 1028 1067 c 0,35,36
 1028 913 1028 913 946 816 c 128,-1,37
 864 719 864 719 707 686 c 1,38,-1
 707 428 l 1,12,-1
EndSplineSet
EndChar

StartChar: at
Encoding: 64 64 31
Width: 2048
GlyphClass: 1
Flags: W
LayerCount: 2
Fore
SplineSet
1167 272 m 1,0,1
 1112 188 1112 188 1040 148.5 c 128,-1,2
 968 109 968 109 870 109 c 0,3,4
 712 109 712 109 629.5 195 c 128,-1,5
 547 281 547 281 547 449 c 0,6,7
 547 688 547 688 686.5 850 c 128,-1,8
 826 1012 826 1012 1030 1012 c 0,9,10
 1110 1012 1110 1012 1169 979 c 128,-1,11
 1228 946 1228 946 1266 881 c 1,12,-1
 1319 979 l 1,13,-1
 1497 979 l 1,14,-1
 1350 381 l 2,15,16
 1347 370 1347 370 1345 358.5 c 128,-1,17
 1343 347 1343 347 1343 340 c 0,18,19
 1343 305 1343 305 1367 287.5 c 128,-1,20
 1391 270 1391 270 1438 270 c 0,21,22
 1477 270 1477 270 1519.5 290 c 128,-1,23
 1562 310 1562 310 1599 346 c 0,24,25
 1685 426 1685 426 1729.5 533 c 128,-1,26
 1774 640 1774 640 1774 768 c 0,27,28
 1774 1008 1774 1008 1588.5 1162.5 c 128,-1,29
 1403 1317 1403 1317 1110 1317 c 0,30,31
 969 1317 969 1317 847.5 1283 c 128,-1,32
 726 1249 726 1249 627 1182 c 0,33,34
 457 1068 457 1068 365.5 897 c 128,-1,35
 274 726 274 726 274 522 c 0,36,37
 274 215 274 215 481 31.5 c 128,-1,38
 688 -152 688 -152 1034 -152 c 0,39,40
 1196 -152 1196 -152 1350.5 -103 c 128,-1,41
 1505 -54 1505 -54 1638 39 c 1,42,-1
 1720 -78 l 1,43,44
 1567 -193 1567 -193 1395.5 -251 c 128,-1,45
 1224 -309 1224 -309 1038 -309 c 0,46,47
 846 -309 846 -309 685 -260.5 c 128,-1,48
 524 -212 524 -212 399 -117 c 0,49,50
 244 4 244 4 167 162 c 128,-1,51
 90 320 90 320 90 520 c 0,52,53
 90 687 90 687 142.5 838.5 c 128,-1,54
 195 990 195 990 297 1114 c 0,55,56
 445 1295 445 1295 653 1388 c 128,-1,57
 861 1481 861 1481 1116 1481 c 0,58,59
 1285 1481 1285 1481 1433.5 1435.5 c 128,-1,60
 1582 1390 1582 1390 1692 1307 c 0,61,62
 1827 1202 1827 1202 1893.5 1067.5 c 128,-1,63
 1960 933 1960 933 1960 764 c 0,64,65
 1960 599 1960 599 1894.5 459.5 c 128,-1,66
 1829 320 1829 320 1706 221 c 0,67,68
 1636 165 1636 165 1553.5 135.5 c 128,-1,69
 1471 106 1471 106 1382 106 c 0,70,71
 1276 106 1276 106 1222.5 148 c 128,-1,72
 1169 190 1169 190 1167 272 c 1,0,1
1217 700 m 1,73,74
 1204 781 1204 781 1159.5 823.5 c 128,-1,75
 1115 866 1115 866 1042 866 c 0,76,77
 928 866 928 866 844 742 c 128,-1,78
 760 618 760 618 760 444 c 0,79,80
 760 352 760 352 800.5 304 c 128,-1,81
 841 256 841 256 918 256 c 0,82,83
 1001 256 1001 256 1069.5 319 c 128,-1,84
 1138 382 1138 382 1163 483 c 2,85,-1
 1217 700 l 1,73,74
EndSplineSet
EndChar

StartChar: A
Encoding: 65 65 32
Width: 1460
GlyphClass: 1
Flags: W
LayerCount: 2
Fore
SplineSet
922 557 m 1,0,-1
 758 1030 l 2,1,2
 751 1051 751 1051 740 1102 c 128,-1,3
 729 1153 729 1153 717 1227 c 1,4,5
 704 1156 704 1156 692 1099.5 c 128,-1,6
 680 1043 680 1043 674 1024 c 2,7,-1
 516 557 l 1,8,-1
 922 557 l 1,0,-1
-10 0 m 1,9,-1
 547 1464 l 1,10,-1
 905 1464 l 1,11,-1
 1470 0 l 1,12,-1
 1114 0 l 1,13,-1
 995 311 l 1,14,-1
 428 311 l 1,15,-1
 326 0 l 1,16,-1
 -10 0 l 1,9,-1
EndSplineSet
EndChar

StartChar: B
Encoding: 66 66 33
Width: 1223
GlyphClass: 1
Flags: W
LayerCount: 2
Fore
SplineSet
477 244 m 1,0,-1
 600 244 l 2,1,2
 718 244 718 244 779 295.5 c 128,-1,3
 840 347 840 347 840 446 c 0,4,5
 840 539 840 539 779.5 588 c 128,-1,6
 719 637 719 637 604 637 c 2,7,-1
 477 637 l 1,8,-1
 477 244 l 1,0,-1
477 879 m 1,9,-1
 547 879 l 2,10,11
 689 879 689 879 748 919 c 128,-1,12
 807 959 807 959 807 1053 c 0,13,14
 807 1145 807 1145 750.5 1184 c 128,-1,15
 694 1223 694 1223 553 1223 c 2,16,-1
 477 1223 l 1,17,-1
 477 879 l 1,9,-1
164 0 m 1,18,-1
 164 1464 l 1,19,-1
 438 1464 l 2,20,21
 651 1464 651 1464 749.5 1447.5 c 128,-1,22
 848 1431 848 1431 920 1393 c 0,23,24
 1005 1344 1005 1344 1051.5 1264 c 128,-1,25
 1098 1184 1098 1184 1098 1083 c 0,26,27
 1098 953 1098 953 1021 874.5 c 128,-1,28
 944 796 944 796 791 770 c 1,29,30
 968 744 968 744 1058.5 655 c 128,-1,31
 1149 566 1149 566 1149 418 c 0,32,33
 1149 310 1149 310 1097 220.5 c 128,-1,34
 1045 131 1045 131 954 82 c 0,35,36
 873 38 873 38 764 19 c 128,-1,37
 655 0 655 0 403 0 c 2,38,-1
 371 0 l 1,39,-1
 164 0 l 1,18,-1
EndSplineSet
EndChar

StartChar: C
Encoding: 67 67 34
Width: 1470
GlyphClass: 1
Flags: W
LayerCount: 2
Fore
SplineSet
1343 1083 m 1,0,1
 1248 1168 1248 1168 1148 1207.5 c 128,-1,2
 1048 1247 1048 1247 934 1247 c 0,3,4
 700 1247 700 1247 561 1107 c 128,-1,5
 422 967 422 967 422 731 c 0,6,7
 422 500 422 500 551 364.5 c 128,-1,8
 680 229 680 229 903 229 c 0,9,10
 1030 229 1030 229 1139 271.5 c 128,-1,11
 1248 314 1248 314 1341 399 c 1,12,-1
 1339 78 l 1,13,14
 1239 19 1239 19 1129.5 -10 c 128,-1,15
 1020 -39 1020 -39 899 -39 c 0,16,17
 549 -39 549 -39 324.5 178.5 c 128,-1,18
 100 396 100 396 100 731 c 0,19,20
 100 1065 100 1065 325 1282 c 128,-1,21
 550 1499 550 1499 905 1499 c 0,22,23
 1024 1499 1024 1499 1135 1474 c 128,-1,24
 1246 1449 1246 1449 1354 1397 c 1,25,-1
 1343 1083 l 1,0,1
EndSplineSet
EndChar

StartChar: D
Encoding: 68 68 35
Width: 1542
GlyphClass: 1
Flags: W
LayerCount: 2
Fore
SplineSet
477 264 m 1,0,-1
 651 264 l 2,1,2
 897 264 897 264 1009.5 376 c 128,-1,3
 1122 488 1122 488 1122 731 c 0,4,5
 1122 973 1122 973 1009.5 1085.5 c 128,-1,6
 897 1198 897 1198 651 1198 c 2,7,-1
 477 1198 l 1,8,-1
 477 264 l 1,0,-1
164 0 m 1,9,-1
 164 1464 l 1,10,-1
 563 1464 l 2,11,12
 799 1464 799 1464 935 1431 c 128,-1,13
 1071 1398 1071 1398 1174 1321 c 0,14,15
 1307 1222 1307 1222 1375.5 1071.5 c 128,-1,16
 1444 921 1444 921 1444 729 c 0,17,18
 1444 534 1444 534 1374 383.5 c 128,-1,19
 1304 233 1304 233 1169 135 c 0,20,21
 1069 63 1069 63 946.5 31.5 c 128,-1,22
 824 0 824 0 588 0 c 2,23,-1
 477 0 l 1,24,-1
 164 0 l 1,9,-1
EndSplineSet
EndChar

StartChar: E
Encoding: 69 69 36
Width: 1169
GlyphClass: 1
Flags: W
LayerCount: 2
Fore
SplineSet
164 0 m 1,0,-1
 164 1464 l 1,1,-1
 1026 1464 l 1,2,-1
 1026 1200 l 1,3,-1
 477 1200 l 1,4,-1
 477 899 l 1,5,-1
 1026 899 l 1,6,-1
 1026 633 l 1,7,-1
 477 633 l 1,8,-1
 477 266 l 1,9,-1
 1026 266 l 1,10,-1
 1026 0 l 1,11,-1
 164 0 l 1,0,-1
EndSplineSet
EndChar

StartChar: F
Encoding: 70 70 37
Width: 1104
GlyphClass: 1
Flags: W
LayerCount: 2
Fore
SplineSet
164 0 m 1,0,-1
 164 1464 l 1,1,-1
 1026 1464 l 1,2,-1
 1026 1200 l 1,3,-1
 477 1200 l 1,4,-1
 477 899 l 1,5,-1
 1026 899 l 1,6,-1
 1026 633 l 1,7,-1
 477 633 l 1,8,-1
 477 0 l 1,9,-1
 164 0 l 1,0,-1
EndSplineSet
EndChar

StartChar: G
Encoding: 71 71 38
Width: 1645
GlyphClass: 1
Flags: W
LayerCount: 2
Fore
SplineSet
891 772 m 1,0,-1
 1558 772 l 1,1,2
 1560 759 1560 759 1560.5 744 c 128,-1,3
 1561 729 1561 729 1561 698 c 0,4,5
 1561 369 1561 369 1373 165 c 128,-1,6
 1185 -39 1185 -39 887 -39 c 0,7,8
 546 -39 546 -39 325 178.5 c 128,-1,9
 104 396 104 396 104 731 c 0,10,11
 104 1063 104 1063 326 1280 c 128,-1,12
 548 1497 548 1497 887 1497 c 0,13,14
 1066 1497 1066 1497 1215 1422 c 128,-1,15
 1364 1347 1364 1347 1481 1198 c 1,16,-1
 1270 1042 l 1,17,18
 1191 1140 1191 1140 1104 1183.5 c 128,-1,19
 1017 1227 1017 1227 903 1227 c 0,20,21
 686 1227 686 1227 556 1092 c 128,-1,22
 426 957 426 957 426 731 c 0,23,24
 426 509 426 509 556.5 372.5 c 128,-1,25
 687 236 687 236 897 236 c 0,26,27
 1051 236 1051 236 1147 308.5 c 128,-1,28
 1243 381 1243 381 1243 498 c 2,29,-1
 1243 514 l 1,30,-1
 891 514 l 1,31,-1
 891 772 l 1,0,-1
EndSplineSet
EndChar

StartChar: H
Encoding: 72 72 39
Width: 1587
GlyphClass: 1
Flags: W
LayerCount: 2
Fore
SplineSet
164 0 m 1,0,-1
 164 1464 l 1,1,-1
 477 1464 l 1,2,-1
 477 877 l 1,3,-1
 1112 877 l 1,4,-1
 1112 1464 l 1,5,-1
 1425 1464 l 1,6,-1
 1425 0 l 1,7,-1
 1112 0 l 1,8,-1
 1112 612 l 1,9,-1
 477 612 l 1,10,-1
 477 0 l 1,11,-1
 164 0 l 1,0,-1
EndSplineSet
EndChar

StartChar: I
Encoding: 73 73 40
Width: 653
GlyphClass: 1
Flags: W
LayerCount: 2
Fore
SplineSet
170 0 m 1,0,-1
 170 1464 l 1,1,-1
 483 1464 l 1,2,-1
 483 0 l 1,3,-1
 170 0 l 1,0,-1
EndSplineSet
EndChar

StartChar: J
Encoding: 74 74 41
Width: 909
GlyphClass: 1
Flags: W
LayerCount: 2
Fore
SplineSet
758 1464 m 1,0,-1
 758 500 l 2,1,2
 758 335 758 335 745 258 c 128,-1,3
 732 181 732 181 702 127 c 0,4,5
 658 45 658 45 572.5 3 c 128,-1,6
 487 -39 487 -39 365 -39 c 0,7,8
 211 -39 211 -39 118.5 38 c 128,-1,9
 26 115 26 115 0 264 c 1,10,-1
 227 372 l 1,11,12
 235 303 235 303 262.5 268 c 128,-1,13
 290 233 290 233 338 233 c 0,14,15
 398 233 398 233 421 276.5 c 128,-1,16
 444 320 444 320 444 471 c 2,17,-1
 444 602 l 1,18,-1
 444 1464 l 1,19,-1
 758 1464 l 1,0,-1
EndSplineSet
EndChar

StartChar: K
Encoding: 75 75 42
Width: 1327
GlyphClass: 1
Flags: W
LayerCount: 2
Fore
SplineSet
164 0 m 1,0,-1
 164 1464 l 1,1,-1
 477 1464 l 1,2,-1
 477 801 l 1,3,-1
 965 1464 l 1,4,-1
 1327 1464 l 1,5,-1
 803 797 l 1,6,-1
 1346 0 l 1,7,-1
 969 0 l 1,8,-1
 477 766 l 1,9,-1
 477 0 l 1,10,-1
 164 0 l 1,0,-1
EndSplineSet
EndChar

StartChar: L
Encoding: 76 76 43
Width: 1010
GlyphClass: 1
Flags: W
LayerCount: 2
Fore
SplineSet
164 0 m 1,0,-1
 164 1464 l 1,1,-1
 477 1464 l 1,2,-1
 477 266 l 1,3,-1
 977 266 l 1,4,-1
 977 0 l 1,5,-1
 164 0 l 1,0,-1
EndSplineSet
EndChar

StartChar: M
Encoding: 77 77 44
Width: 1819
GlyphClass: 1
Flags: W
LayerCount: 2
Fore
SplineSet
37 0 m 1,0,-1
 260 1464 l 1,1,-1
 588 1464 l 1,2,-1
 870 602 l 2,3,4
 879 575 879 575 889.5 523 c 128,-1,5
 900 471 900 471 909 404 c 1,6,7
 917 472 917 472 927 525.5 c 128,-1,8
 937 579 937 579 946 604 c 2,9,-1
 1233 1464 l 1,10,-1
 1556 1464 l 1,11,-1
 1780 0 l 1,12,-1
 1483 0 l 1,13,-1
 1376 883 l 2,14,15
 1364 981 1364 981 1360 1031 c 128,-1,16
 1356 1081 1356 1081 1356 1124 c 0,17,18
 1356 1147 1356 1147 1356.5 1158.5 c 128,-1,19
 1357 1170 1357 1170 1358 1179 c 1,20,21
 1343 1093 1343 1093 1329.5 1030.5 c 128,-1,22
 1316 968 1316 968 1305 936 c 2,23,-1
 995 0 l 1,24,-1
 819 0 l 1,25,-1
 514 936 l 2,26,27
 510 949 510 949 496.5 1008 c 128,-1,28
 483 1067 483 1067 459 1180 c 1,29,-1
 459 1137 l 2,30,31
 459 1035 459 1035 441 887 c 1,32,-1
 440 883 l 1,33,-1
 334 0 l 1,34,-1
 37 0 l 1,0,-1
EndSplineSet
EndChar

StartChar: N
Encoding: 78 78 45
Width: 1708
GlyphClass: 1
Flags: W
LayerCount: 2
Fore
SplineSet
164 0 m 1,0,-1
 164 1464 l 1,1,-1
 489 1464 l 1,2,-1
 1137 612 l 2,3,4
 1165 576 1165 576 1198.5 510.5 c 128,-1,5
 1232 445 1232 445 1268 356 c 1,6,7
 1257 421 1257 421 1252 485 c 128,-1,8
 1247 549 1247 549 1247 645 c 2,9,-1
 1247 1464 l 1,10,-1
 1546 1464 l 1,11,-1
 1546 0 l 1,12,-1
 1239 0 l 1,13,-1
 573 868 l 2,14,15
 545 904 545 904 512 969.5 c 128,-1,16
 479 1035 479 1035 442 1126 c 1,17,18
 453 1063 453 1063 458 998.5 c 128,-1,19
 463 934 463 934 463 836 c 2,20,-1
 463 0 l 1,21,-1
 164 0 l 1,0,-1
EndSplineSet
EndChar

StartChar: O
Encoding: 79 79 46
Width: 1763
GlyphClass: 1
Flags: W
LayerCount: 2
Fore
SplineSet
1663 729 m 256,0,1
 1663 572 1663 572 1604.5 432 c 128,-1,2
 1546 292 1546 292 1436 186 c 0,3,4
 1322 77 1322 77 1179 19 c 128,-1,5
 1036 -39 1036 -39 883 -39 c 0,6,7
 749 -39 749 -39 620.5 6.5 c 128,-1,8
 492 52 492 52 385 137 c 0,9,10
 247 247 247 247 173.5 400 c 128,-1,11
 100 553 100 553 100 729 c 0,12,13
 100 887 100 887 158 1025.5 c 128,-1,14
 216 1164 216 1164 328 1272 c 0,15,16
 438 1379 438 1379 583.5 1438 c 128,-1,17
 729 1497 729 1497 883 1497 c 0,18,19
 1036 1497 1036 1497 1180.5 1438 c 128,-1,20
 1325 1379 1325 1379 1436 1272 c 0,21,22
 1547 1164 1547 1164 1605 1025 c 128,-1,23
 1663 886 1663 886 1663 729 c 256,0,1
883 240 m 0,24,25
 1082 240 1082 240 1211.5 379.5 c 128,-1,26
 1341 519 1341 519 1341 729 c 0,27,28
 1341 937 1341 937 1210 1079 c 128,-1,29
 1079 1221 1079 1221 883 1221 c 0,30,31
 684 1221 684 1221 553 1079.5 c 128,-1,32
 422 938 422 938 422 729 c 0,33,34
 422 517 422 517 551 378.5 c 128,-1,35
 680 240 680 240 883 240 c 0,24,25
EndSplineSet
EndChar

StartChar: P
Encoding: 80 80 47
Width: 1139
GlyphClass: 1
Flags: W
LayerCount: 2
Fore
SplineSet
479 803 m 1,0,-1
 524 803 l 2,1,2
 652 803 652 803 710 856 c 128,-1,3
 768 909 768 909 768 1026 c 0,4,5
 768 1134 768 1134 710 1183.5 c 128,-1,6
 652 1233 652 1233 524 1233 c 2,7,-1
 479 1233 l 1,8,-1
 479 803 l 1,0,-1
164 0 m 1,9,-1
 164 1464 l 1,10,-1
 524 1464 l 2,11,12
 812 1464 812 1464 949.5 1354 c 128,-1,13
 1087 1244 1087 1244 1087 1014 c 0,14,15
 1087 801 1087 801 948.5 680 c 128,-1,16
 810 559 810 559 565 559 c 2,17,-1
 479 559 l 1,18,-1
 479 0 l 1,19,-1
 164 0 l 1,9,-1
EndSplineSet
EndChar

StartChar: Q
Encoding: 81 81 48
Width: 1763
GlyphClass: 1
Flags: W
LayerCount: 2
Fore
SplineSet
1092 496 m 1,0,-1
 1200 369 l 1,1,2
 1268 439 1268 439 1304.5 533.5 c 128,-1,3
 1341 628 1341 628 1341 729 c 0,4,5
 1341 937 1341 937 1210 1079 c 128,-1,6
 1079 1221 1079 1221 883 1221 c 0,7,8
 684 1221 684 1221 553 1079.5 c 128,-1,9
 422 938 422 938 422 729 c 0,10,11
 422 518 422 518 550.5 379 c 128,-1,12
 679 240 679 240 877 240 c 0,13,14
 894 240 894 240 924.5 243.5 c 128,-1,15
 955 247 955 247 997 254 c 1,16,-1
 786 496 l 1,17,-1
 1092 496 l 1,0,-1
1655 -170 m 1,18,-1
 1343 -170 l 1,19,-1
 1184 18 l 1,20,21
 1076 -10 1076 -10 1004.5 -22.5 c 128,-1,22
 933 -35 933 -35 877 -35 c 0,23,24
 726 -35 726 -35 581 24 c 128,-1,25
 436 83 436 83 328 188 c 0,26,27
 217 296 217 296 157.5 436.5 c 128,-1,28
 98 577 98 577 98 731 c 256,29,30
 98 885 98 885 157 1024.5 c 128,-1,31
 216 1164 216 1164 328 1274 c 0,32,33
 437 1382 437 1382 580.5 1439.5 c 128,-1,34
 724 1497 724 1497 883 1497 c 0,35,36
 1039 1497 1039 1497 1182 1439.5 c 128,-1,37
 1325 1382 1325 1382 1436 1274 c 0,38,39
 1547 1165 1547 1165 1606 1026 c 128,-1,40
 1665 887 1665 887 1665 731 c 0,41,42
 1665 559 1665 559 1594 410 c 128,-1,43
 1523 261 1523 261 1386 145 c 1,44,-1
 1655 -170 l 1,18,-1
EndSplineSet
EndChar

StartChar: R
Encoding: 82 82 49
Width: 1241
GlyphClass: 1
Flags: W
LayerCount: 2
Fore
SplineSet
1223 0 m 1,0,-1
 862 0 l 1,1,-1
 477 684 l 1,2,-1
 477 0 l 1,3,-1
 164 0 l 1,4,-1
 164 1464 l 1,5,-1
 612 1464 l 2,6,7
 879 1464 879 1464 1012 1360.5 c 128,-1,8
 1145 1257 1145 1257 1145 1049 c 0,9,10
 1145 898 1145 898 1054 791 c 128,-1,11
 963 684 963 684 819 666 c 1,12,-1
 1223 0 l 1,0,-1
477 840 m 1,13,-1
 524 840 l 2,14,15
 714 840 714 840 775 881.5 c 128,-1,16
 836 923 836 923 836 1026 c 0,17,18
 836 1134 836 1134 770.5 1179.5 c 128,-1,19
 705 1225 705 1225 524 1225 c 2,20,-1
 477 1225 l 1,21,-1
 477 840 l 1,13,-1
EndSplineSet
EndChar

StartChar: S
Encoding: 83 83 50
Width: 1147
GlyphClass: 1
Flags: W
LayerCount: 2
Fore
SplineSet
70 186 m 1,0,-1
 244 383 l 1,1,2
 277 302 277 302 350 255.5 c 128,-1,3
 423 209 423 209 514 209 c 0,4,5
 624 209 624 209 688 261 c 128,-1,6
 752 313 752 313 752 401 c 0,7,8
 752 505 752 505 539 608 c 0,9,10
 470 641 470 641 430 662 c 0,11,12
 238 762 238 762 164 857.5 c 128,-1,13
 90 953 90 953 90 1085 c 0,14,15
 90 1266 90 1266 233.5 1382.5 c 128,-1,16
 377 1499 377 1499 606 1499 c 0,17,18
 739 1499 739 1499 835.5 1452.5 c 128,-1,19
 932 1406 932 1406 1006 1307 c 1,20,-1
 821 1130 l 1,21,22
 788 1194 788 1194 733.5 1225.5 c 128,-1,23
 679 1257 679 1257 602 1257 c 0,24,25
 509 1257 509 1257 452 1210.5 c 128,-1,26
 395 1164 395 1164 395 1090 c 0,27,28
 395 974 395 974 621 878 c 0,29,30
 666 859 666 859 690 848 c 0,31,32
 876 763 876 763 965.5 656 c 128,-1,33
 1055 549 1055 549 1055 412 c 0,34,35
 1055 206 1055 206 914.5 83.5 c 128,-1,36
 774 -39 774 -39 537 -39 c 0,37,38
 369 -39 369 -39 249 19 c 128,-1,39
 129 77 129 77 70 186 c 1,0,-1
EndSplineSet
EndChar

StartChar: T
Encoding: 84 84 51
Width: 1110
GlyphClass: 1
Flags: W
LayerCount: 2
Fore
SplineSet
711 1198 m 1,0,-1
 711 0 l 1,1,-1
 397 0 l 1,2,-1
 397 1198 l 1,3,-1
 39 1198 l 1,4,-1
 39 1464 l 1,5,-1
 1071 1464 l 1,6,-1
 1071 1198 l 1,7,-1
 711 1198 l 1,0,-1
EndSplineSet
EndChar

StartChar: U
Encoding: 85 85 52
Width: 1583
GlyphClass: 1
Flags: W
LayerCount: 2
Fore
SplineSet
1423 1464 m 1,0,-1
 1423 553 l 2,1,2
 1423 255 1423 255 1266 108 c 128,-1,3
 1109 -39 1109 -39 793 -39 c 0,4,5
 472 -39 472 -39 315 108 c 128,-1,6
 158 255 158 255 158 553 c 2,7,-1
 158 1464 l 1,8,-1
 469 1464 l 1,9,-1
 469 602 l 2,10,11
 469 421 469 421 549 329.5 c 128,-1,12
 629 238 629 238 788 238 c 0,13,14
 948 238 948 238 1030 330 c 128,-1,15
 1112 422 1112 422 1112 602 c 2,16,-1
 1112 1464 l 1,17,-1
 1423 1464 l 1,0,-1
EndSplineSet
EndChar

StartChar: V
Encoding: 86 86 53
Width: 1370
GlyphClass: 1
Flags: W
LayerCount: 2
Fore
SplineSet
535 0 m 1,0,-1
 -6 1464 l 1,1,-1
 340 1464 l 1,2,-1
 625 551 l 2,3,4
 633 523 633 523 650 447 c 128,-1,5
 667 371 667 371 686 274 c 1,6,7
 699 368 699 368 714.5 441 c 128,-1,8
 730 514 730 514 745 561 c 2,9,-1
 1034 1464 l 1,10,-1
 1376 1464 l 1,11,-1
 831 0 l 1,12,-1
 535 0 l 1,0,-1
EndSplineSet
EndChar

StartChar: W
Encoding: 87 87 54
Width: 2058
GlyphClass: 1
Flags: W
LayerCount: 2
Fore
SplineSet
1182 1464 m 1,0,-1
 1399 670 l 2,1,2
 1420 594 1420 594 1438 507 c 128,-1,3
 1456 420 1456 420 1472 312 c 1,4,5
 1474 403 1474 403 1485.5 491.5 c 128,-1,6
 1497 580 1497 580 1520 670 c 2,7,-1
 1710 1464 l 1,8,-1
 2019 1464 l 1,9,-1
 1636 0 l 1,10,-1
 1335 0 l 1,11,-1
 1073 934 l 2,12,13
 1054 998 1054 998 1043 1063 c 128,-1,14
 1032 1128 1032 1128 1028 1198 c 1,15,16
 1023 1124 1023 1124 1012.5 1058 c 128,-1,17
 1002 992 1002 992 985 934 c 2,18,-1
 721 0 l 1,19,-1
 420 0 l 1,20,-1
 37 1464 l 1,21,-1
 350 1464 l 1,22,-1
 543 651 l 2,23,24
 559 581 559 581 569 499.5 c 128,-1,25
 579 418 579 418 584 322 c 1,26,27
 603 449 603 449 654 644 c 1,28,-1
 659 665 l 1,29,-1
 874 1464 l 1,30,-1
 1182 1464 l 1,0,-1
EndSplineSet
EndChar

StartChar: X
Encoding: 88 88 55
Width: 1229
GlyphClass: 1
Flags: W
LayerCount: 2
Fore
SplineSet
549 1081 m 2,0,1
 573 1040 573 1040 587 1008.5 c 128,-1,2
 601 977 601 977 612 942 c 1,3,4
 625 978 625 978 641 1013 c 128,-1,5
 657 1048 657 1048 680 1087 c 2,6,-1
 887 1464 l 1,7,-1
 1219 1464 l 1,8,-1
 782 766 l 1,9,-1
 1233 0 l 1,10,-1
 895 0 l 1,11,-1
 678 406 l 2,12,13
 658 443 658 443 642.5 483 c 128,-1,14
 627 523 627 523 614 567 c 1,15,16
 597 515 597 515 580 474 c 128,-1,17
 563 433 563 433 547 403 c 2,18,-1
 330 0 l 1,19,-1
 -6 0 l 1,20,-1
 446 766 l 1,21,-1
 6 1464 l 1,22,-1
 340 1464 l 1,23,-1
 549 1081 l 2,0,1
EndSplineSet
EndChar

StartChar: Y
Encoding: 89 89 56
Width: 1241
GlyphClass: 1
Flags: W
LayerCount: 2
Fore
SplineSet
465 0 m 1,0,-1
 465 668 l 1,1,-1
 -31 1464 l 1,2,-1
 336 1464 l 1,3,-1
 553 1063 l 2,4,5
 569 1033 569 1033 586 987 c 128,-1,6
 603 941 603 941 621 881 c 1,7,8
 635 932 635 932 652.5 977 c 128,-1,9
 670 1022 670 1022 692 1065 c 2,10,-1
 907 1464 l 1,11,-1
 1272 1464 l 1,12,-1
 778 668 l 1,13,-1
 778 0 l 1,14,-1
 465 0 l 1,0,-1
EndSplineSet
EndChar

StartChar: Z
Encoding: 90 90 57
Width: 1298
GlyphClass: 1
Flags: W
LayerCount: 2
Fore
SplineSet
1235 0 m 1,0,-1
 6 0 l 1,1,-1
 764 1214 l 1,2,-1
 84 1214 l 1,3,-1
 84 1464 l 1,4,-1
 1266 1464 l 1,5,-1
 508 252 l 1,6,-1
 1235 252 l 1,7,-1
 1235 0 l 1,0,-1
EndSplineSet
EndChar

StartChar: bracketleft
Encoding: 91 91 58
Width: 688
GlyphClass: 1
Flags: W
LayerCount: 2
Fore
SplineSet
182 1497 m 1,0,-1
 633 1497 l 1,1,-1
 633 1266 l 1,2,-1
 434 1266 l 1,3,-1
 434 -217 l 1,4,-1
 633 -217 l 1,5,-1
 633 -451 l 1,6,-1
 182 -451 l 1,7,-1
 182 1497 l 1,0,-1
EndSplineSet
EndChar

StartChar: backslash
Encoding: 92 92 59
Width: 930
GlyphClass: 1
Flags: W
LayerCount: 2
Fore
SplineSet
717 -190 m 1,0,-1
 0 1497 l 1,1,-1
 213 1497 l 1,2,-1
 930 -190 l 1,3,-1
 717 -190 l 1,0,-1
EndSplineSet
EndChar

StartChar: bracketright
Encoding: 93 93 60
Width: 688
GlyphClass: 1
Flags: W
LayerCount: 2
Fore
SplineSet
506 1497 m 1,0,-1
 506 -451 l 1,1,-1
 55 -451 l 1,2,-1
 55 -217 l 1,3,-1
 254 -217 l 1,4,-1
 254 1266 l 1,5,-1
 55 1266 l 1,6,-1
 55 1497 l 1,7,-1
 506 1497 l 1,0,-1
EndSplineSet
EndChar

StartChar: asciicircum
Encoding: 94 94 61
Width: 2048
GlyphClass: 1
Flags: W
LayerCount: 2
Fore
SplineSet
897 1460 m 1,0,-1
 1149 1460 l 1,1,-1
 1630 899 l 1,2,-1
 1395 899 l 1,3,-1
 1024 1270 l 1,4,-1
 651 899 l 1,5,-1
 416 899 l 1,6,-1
 897 1460 l 1,0,-1
EndSplineSet
EndChar

StartChar: underscore
Encoding: 95 95 62
Width: 1024
GlyphClass: 1
Flags: W
LayerCount: 2
Fore
SplineSet
0 -279 m 1,0,-1
 1024 -279 l 1,1,-1
 1024 -483 l 1,2,-1
 0 -483 l 1,3,-1
 0 -279 l 1,0,-1
EndSplineSet
EndChar

StartChar: grave
Encoding: 96 96 63
Width: 1024
GlyphClass: 1
Flags: W
LayerCount: 2
Fore
SplineSet
219 1495 m 1,0,-1
 477 1495 l 1,1,-1
 674 1126 l 1,2,-1
 532 1126 l 1,3,-1
 219 1495 l 1,0,-1
EndSplineSet
EndChar

StartChar: a
Encoding: 97 97 64
Width: 1251
GlyphClass: 1
Flags: W
LayerCount: 2
Fore
SplineSet
862 492 m 0,0,1
 862 624 862 624 795.5 701 c 128,-1,2
 729 778 729 778 616 778 c 0,3,4
 500 778 500 778 433.5 701.5 c 128,-1,5
 367 625 367 625 367 492 c 256,6,7
 367 359 367 359 432.5 285 c 128,-1,8
 498 211 498 211 614 211 c 0,9,10
 732 211 732 211 797 285 c 128,-1,11
 862 359 862 359 862 492 c 0,0,1
1122 0 m 1,12,-1
 846 0 l 1,13,-1
 850 141 l 1,14,15
 792 48 792 48 710.5 4.5 c 128,-1,16
 629 -39 629 -39 512 -39 c 0,17,18
 317 -39 317 -39 197.5 106 c 128,-1,19
 78 251 78 251 78 489 c 0,20,21
 78 737 78 737 195.5 875.5 c 128,-1,22
 313 1014 313 1014 522 1014 c 0,23,24
 631 1014 631 1014 713.5 965 c 128,-1,25
 796 916 796 916 852 819 c 1,26,-1
 852 981 l 1,27,-1
 1122 981 l 1,28,-1
 1122 0 l 1,12,-1
EndSplineSet
EndChar

StartChar: b
Encoding: 98 98 65
Width: 1262
GlyphClass: 1
Flags: W
LayerCount: 2
Fore
SplineSet
399 492 m 0,0,1
 399 359 399 359 464.5 285 c 128,-1,2
 530 211 530 211 647 211 c 256,3,4
 764 211 764 211 829.5 285 c 128,-1,5
 895 359 895 359 895 492 c 256,6,7
 895 625 895 625 828.5 701.5 c 128,-1,8
 762 778 762 778 645 778 c 0,9,10
 532 778 532 778 465.5 701 c 128,-1,11
 399 624 399 624 399 492 c 0,0,1
139 0 m 1,12,-1
 139 1550 l 1,13,-1
 412 1550 l 1,14,-1
 412 991 l 2,15,16
 412 945 412 945 408.5 899.5 c 128,-1,17
 405 854 405 854 399 811 c 1,18,19
 469 917 469 917 551 965.5 c 128,-1,20
 633 1014 633 1014 739 1014 c 0,21,22
 949 1014 949 1014 1066.5 875.5 c 128,-1,23
 1184 737 1184 737 1184 489 c 0,24,25
 1184 250 1184 250 1065 105.5 c 128,-1,26
 946 -39 946 -39 752 -39 c 0,27,28
 635 -39 635 -39 553.5 4.5 c 128,-1,29
 472 48 472 48 414 141 c 1,30,-1
 416 0 l 1,31,-1
 139 0 l 1,12,-1
EndSplineSet
EndChar

StartChar: c
Encoding: 99 99 66
Width: 938
GlyphClass: 1
Flags: W
LayerCount: 2
Fore
SplineSet
862 29 m 1,0,1
 804 -6 804 -6 740 -22.5 c 128,-1,2
 676 -39 676 -39 600 -39 c 0,3,4
 368 -39 368 -39 222 108.5 c 128,-1,5
 76 256 76 256 76 492 c 0,6,7
 76 723 76 723 223 868.5 c 128,-1,8
 370 1014 370 1014 604 1014 c 0,9,10
 682 1014 682 1014 744 999 c 128,-1,11
 806 984 806 984 862 952 c 1,12,-1
 860 666 l 1,13,14
 815 712 815 712 756 737 c 128,-1,15
 697 762 697 762 631 762 c 0,16,17
 511 762 511 762 439 688.5 c 128,-1,18
 367 615 367 615 367 494 c 0,19,20
 367 370 367 370 440.5 296.5 c 128,-1,21
 514 223 514 223 639 223 c 0,22,23
 708 223 708 223 761.5 248 c 128,-1,24
 815 273 815 273 860 326 c 1,25,-1
 862 29 l 1,0,1
EndSplineSet
EndChar

StartChar: d
Encoding: 100 100 67
Width: 1262
GlyphClass: 1
Flags: W
LayerCount: 2
Fore
SplineSet
862 492 m 0,0,1
 862 624 862 624 795.5 701 c 128,-1,2
 729 778 729 778 616 778 c 0,3,4
 500 778 500 778 433.5 702.5 c 128,-1,5
 367 627 367 627 367 494 c 256,6,7
 367 361 367 361 432.5 286 c 128,-1,8
 498 211 498 211 614 211 c 0,9,10
 732 211 732 211 797 285 c 128,-1,11
 862 359 862 359 862 492 c 0,0,1
1122 0 m 1,12,-1
 846 0 l 1,13,-1
 850 141 l 1,14,15
 792 48 792 48 710.5 4.5 c 128,-1,16
 629 -39 629 -39 512 -39 c 0,17,18
 317 -39 317 -39 197.5 106 c 128,-1,19
 78 251 78 251 78 489 c 0,20,21
 78 738 78 738 195.5 877 c 128,-1,22
 313 1016 313 1016 522 1016 c 0,23,24
 629 1016 629 1016 710 967 c 128,-1,25
 791 918 791 918 862 812 c 1,26,27
 857 848 857 848 854.5 891.5 c 128,-1,28
 852 935 852 935 852 991 c 2,29,-1
 852 1550 l 1,30,-1
 1122 1550 l 1,31,-1
 1122 0 l 1,12,-1
EndSplineSet
EndChar

StartChar: e
Encoding: 101 101 68
Width: 1174
GlyphClass: 1
Flags: W
LayerCount: 2
Fore
SplineSet
815 592 m 1,0,1
 803 685 803 685 747.5 732.5 c 128,-1,2
 692 780 692 780 596 780 c 256,3,4
 500 780 500 780 442.5 732.5 c 128,-1,5
 385 685 385 685 369 592 c 1,6,-1
 815 592 l 1,0,1
1097 420 m 1,7,-1
 360 420 l 1,8,9
 377 314 377 314 437 261.5 c 128,-1,10
 497 209 497 209 600 209 c 0,11,12
 678 209 678 209 734.5 239 c 128,-1,13
 791 269 791 269 829 330 c 1,14,-1
 1059 215 l 1,15,16
 979 86 979 86 865 23.5 c 128,-1,17
 751 -39 751 -39 594 -39 c 0,18,19
 356 -39 356 -39 217 103 c 128,-1,20
 78 245 78 245 78 485 c 0,21,22
 78 716 78 716 223.5 865 c 128,-1,23
 369 1014 369 1014 596 1014 c 0,24,25
 830 1014 830 1014 966 874.5 c 128,-1,26
 1102 735 1102 735 1102 494 c 0,27,28
 1102 481 1102 481 1101 465.5 c 128,-1,29
 1100 450 1100 450 1097 420 c 1,7,-1
EndSplineSet
EndChar

StartChar: f
Encoding: 102 102 69
Width: 678
GlyphClass: 1
Flags: W
LayerCount: 2
Fore
SplineSet
174 0 m 1,0,-1
 174 758 l 1,1,-1
 47 758 l 1,2,-1
 47 981 l 1,3,-1
 174 981 l 1,4,-1
 174 1202 l 2,5,6
 174 1400 174 1400 265 1485.5 c 128,-1,7
 356 1571 356 1571 565 1571 c 0,8,9
 588 1571 588 1571 618.5 1566.5 c 128,-1,10
 649 1562 649 1562 698 1550 c 1,11,-1
 698 1323 l 1,12,13
 672 1337 672 1337 648 1343.5 c 128,-1,14
 624 1350 624 1350 598 1350 c 0,15,16
 523 1350 523 1350 491 1310.5 c 128,-1,17
 459 1271 459 1271 459 1174 c 2,18,-1
 459 981 l 1,19,-1
 641 981 l 1,20,-1
 641 758 l 1,21,-1
 459 758 l 1,22,-1
 459 0 l 1,23,-1
 174 0 l 1,0,-1
EndSplineSet
EndChar

StartChar: g
Encoding: 103 103 70
Width: 1262
GlyphClass: 1
Flags: W
LayerCount: 2
Fore
SplineSet
1120 16 m 2,0,1
 1120 -139 1120 -139 1101.5 -202 c 128,-1,2
 1083 -265 1083 -265 1038 -311 c 0,3,4
 974 -380 974 -380 874 -413 c 128,-1,5
 774 -446 774 -446 631 -446 c 0,6,7
 392 -446 392 -446 268 -370 c 128,-1,8
 144 -294 144 -294 133 -139 c 1,9,-1
 446 -139 l 1,10,11
 453 -196 453 -196 498 -223 c 128,-1,12
 543 -250 543 -250 631 -250 c 0,13,14
 747 -250 747 -250 798.5 -190 c 128,-1,15
 850 -130 850 -130 850 10 c 2,16,-1
 850 150 l 1,17,18
 793 59 793 59 712.5 15 c 128,-1,19
 632 -29 632 -29 522 -29 c 0,20,21
 320 -29 320 -29 199 112.5 c 128,-1,22
 78 254 78 254 78 494 c 0,23,24
 78 738 78 738 196 876 c 128,-1,25
 314 1014 314 1014 522 1014 c 0,26,27
 629 1014 629 1014 712.5 964.5 c 128,-1,28
 796 915 796 915 852 819 c 1,29,-1
 852 981 l 1,30,-1
 1120 981 l 1,31,-1
 1120 16 l 2,0,1
862 492 m 0,32,33
 862 622 862 622 796 697 c 128,-1,34
 730 772 730 772 616 772 c 0,35,36
 499 772 499 772 433 697.5 c 128,-1,37
 367 623 367 623 367 492 c 256,38,39
 367 361 367 361 432 288 c 128,-1,40
 497 215 497 215 614 215 c 256,41,42
 731 215 731 215 796.5 288 c 128,-1,43
 862 361 862 361 862 492 c 0,32,33
EndSplineSet
EndChar

StartChar: h
Encoding: 104 104 71
Width: 1266
GlyphClass: 1
Flags: W
LayerCount: 2
Fore
SplineSet
139 0 m 1,0,-1
 139 1550 l 1,1,-1
 418 1550 l 1,2,-1
 418 999 l 2,3,4
 418 953 418 953 415 907.5 c 128,-1,5
 412 862 412 862 406 819 c 1,6,7
 494 922 494 922 582.5 968 c 128,-1,8
 671 1014 671 1014 780 1014 c 0,9,10
 894 1014 894 1014 972.5 975 c 128,-1,11
 1051 936 1051 936 1094 858 c 0,12,13
 1116 817 1116 817 1125.5 765.5 c 128,-1,14
 1135 714 1135 714 1135 604 c 2,15,-1
 1135 573 l 1,16,-1
 1135 0 l 1,17,-1
 850 0 l 1,18,-1
 850 485 l 2,19,20
 850 666 850 666 808 724 c 128,-1,21
 766 782 766 782 664 782 c 0,22,23
 605 782 605 782 555.5 757.5 c 128,-1,24
 506 733 506 733 473 688 c 0,25,26
 447 653 447 653 435.5 608 c 128,-1,27
 424 563 424 563 424 471 c 2,28,-1
 424 432 l 1,29,-1
 424 0 l 1,30,-1
 139 0 l 1,0,-1
EndSplineSet
EndChar

StartChar: i
Encoding: 105 105 72
Width: 584
GlyphClass: 1
Flags: W
LayerCount: 2
Fore
SplineSet
125 1384 m 0,0,1
 125 1452 125 1452 174 1501 c 128,-1,2
 223 1550 223 1550 291 1550 c 0,3,4
 360 1550 360 1550 409.5 1501.5 c 128,-1,5
 459 1453 459 1453 459 1384 c 256,6,7
 459 1315 459 1315 409.5 1266 c 128,-1,8
 360 1217 360 1217 291 1217 c 0,9,10
 223 1217 223 1217 174 1267 c 128,-1,11
 125 1317 125 1317 125 1384 c 0,0,1
150 0 m 1,12,-1
 150 981 l 1,13,-1
 434 981 l 1,14,-1
 434 0 l 1,15,-1
 150 0 l 1,12,-1
EndSplineSet
EndChar

StartChar: j
Encoding: 106 106 73
Width: 584
GlyphClass: 1
Flags: W
LayerCount: 2
Fore
SplineSet
125 1384 m 0,0,1
 125 1452 125 1452 174 1501 c 128,-1,2
 223 1550 223 1550 291 1550 c 0,3,4
 360 1550 360 1550 409.5 1501.5 c 128,-1,5
 459 1453 459 1453 459 1384 c 256,6,7
 459 1315 459 1315 409.5 1266 c 128,-1,8
 360 1217 360 1217 291 1217 c 0,9,10
 223 1217 223 1217 174 1267 c 128,-1,11
 125 1317 125 1317 125 1384 c 0,0,1
150 -446 m 1,12,-1
 150 981 l 1,13,-1
 434 981 l 1,14,-1
 434 -446 l 1,15,-1
 150 -446 l 1,12,-1
EndSplineSet
EndChar

StartChar: k
Encoding: 107 107 74
Width: 1157
GlyphClass: 1
Flags: W
LayerCount: 2
Fore
SplineSet
139 1550 m 1,0,-1
 424 1550 l 1,1,-1
 424 547 l 1,2,-1
 788 981 l 1,3,-1
 1130 981 l 1,4,-1
 735 547 l 1,5,-1
 1169 0 l 1,6,-1
 817 0 l 1,7,-1
 424 520 l 1,8,-1
 424 0 l 1,9,-1
 139 0 l 1,10,-1
 139 1550 l 1,0,-1
EndSplineSet
EndChar

StartChar: l
Encoding: 108 108 75
Width: 584
GlyphClass: 1
Flags: W
LayerCount: 2
Fore
SplineSet
150 0 m 1,0,-1
 150 1550 l 1,1,-1
 434 1550 l 1,2,-1
 434 0 l 1,3,-1
 150 0 l 1,0,-1
EndSplineSet
EndChar

StartChar: m
Encoding: 109 109 76
Width: 1862
GlyphClass: 1
Flags: W
LayerCount: 2
Fore
SplineSet
420 0 m 1,0,-1
 135 0 l 1,1,-1
 135 981 l 1,2,-1
 420 981 l 1,3,-1
 420 827 l 1,4,5
 490 924 490 924 569.5 969 c 128,-1,6
 649 1014 649 1014 750 1014 c 0,7,8
 872 1014 872 1014 948.5 964 c 128,-1,9
 1025 914 1025 914 1057 813 c 1,10,11
 1125 913 1125 913 1211.5 963.5 c 128,-1,12
 1298 1014 1298 1014 1401 1014 c 0,13,14
 1505 1014 1505 1014 1577.5 975.5 c 128,-1,15
 1650 937 1650 937 1690 860 c 0,16,17
 1711 818 1711 818 1720 765 c 128,-1,18
 1729 712 1729 712 1729 604 c 2,19,-1
 1729 573 l 1,20,-1
 1729 0 l 1,21,-1
 1444 0 l 1,22,-1
 1444 485 l 2,23,24
 1444 664 1444 664 1407.5 723 c 128,-1,25
 1371 782 1371 782 1280 782 c 0,26,27
 1170 782 1170 782 1120.5 700 c 128,-1,28
 1071 618 1071 618 1071 432 c 2,29,-1
 1071 0 l 1,30,-1
 786 0 l 1,31,-1
 786 485 l 2,32,33
 786 658 786 658 752 719 c 128,-1,34
 718 780 718 780 635 780 c 0,35,36
 522 780 522 780 471 697.5 c 128,-1,37
 420 615 420 615 420 432 c 2,38,-1
 420 0 l 1,0,-1
EndSplineSet
EndChar

StartChar: n
Encoding: 110 110 77
Width: 1266
GlyphClass: 1
Flags: W
LayerCount: 2
Fore
SplineSet
139 0 m 1,0,-1
 139 981 l 1,1,-1
 418 981 l 1,2,-1
 418 827 l 1,3,4
 495 923 495 923 583.5 968.5 c 128,-1,5
 672 1014 672 1014 780 1014 c 0,6,7
 894 1014 894 1014 971.5 975.5 c 128,-1,8
 1049 937 1049 937 1094 858 c 0,9,10
 1116 817 1116 817 1125.5 765.5 c 128,-1,11
 1135 714 1135 714 1135 604 c 2,12,-1
 1135 573 l 1,13,-1
 1135 0 l 1,14,-1
 850 0 l 1,15,-1
 850 485 l 2,16,17
 850 666 850 666 808 724 c 128,-1,18
 766 782 766 782 664 782 c 0,19,20
 605 782 605 782 555.5 757.5 c 128,-1,21
 506 733 506 733 473 688 c 0,22,23
 447 653 447 653 435.5 608 c 128,-1,24
 424 563 424 563 424 471 c 2,25,-1
 424 432 l 1,26,-1
 424 0 l 1,27,-1
 139 0 l 1,0,-1
EndSplineSet
EndChar

StartChar: o
Encoding: 111 111 78
Width: 1247
GlyphClass: 1
Flags: W
LayerCount: 2
Fore
SplineSet
881 489 m 256,0,1
 881 609 881 609 811 680.5 c 128,-1,2
 741 752 741 752 623 752 c 256,3,4
 505 752 505 752 436 681 c 128,-1,5
 367 610 367 610 367 489 c 0,6,7
 367 369 367 369 436 297 c 128,-1,8
 505 225 505 225 623 225 c 0,9,10
 740 225 740 225 810.5 297 c 128,-1,11
 881 369 881 369 881 489 c 256,0,1
1171 487 m 0,12,13
 1171 261 1171 261 1016.5 111 c 128,-1,14
 862 -39 862 -39 625 -39 c 0,15,16
 386 -39 386 -39 231 111 c 128,-1,17
 76 261 76 261 76 487 c 0,18,19
 76 712 76 712 232 863 c 128,-1,20
 388 1014 388 1014 625 1014 c 0,21,22
 863 1014 863 1014 1017 865 c 128,-1,23
 1171 716 1171 716 1171 487 c 0,12,13
EndSplineSet
EndChar

StartChar: p
Encoding: 112 112 79
Width: 1262
GlyphClass: 1
Flags: W
LayerCount: 2
Fore
SplineSet
399 492 m 0,0,1
 399 359 399 359 464.5 285 c 128,-1,2
 530 211 530 211 647 211 c 256,3,4
 764 211 764 211 829.5 285 c 128,-1,5
 895 359 895 359 895 492 c 256,6,7
 895 625 895 625 828.5 701.5 c 128,-1,8
 762 778 762 778 645 778 c 0,9,10
 532 778 532 778 465.5 701 c 128,-1,11
 399 624 399 624 399 492 c 0,0,1
139 -446 m 1,12,-1
 139 981 l 1,13,-1
 412 981 l 1,14,-1
 412 819 l 1,15,16
 468 917 468 917 549.5 965.5 c 128,-1,17
 631 1014 631 1014 739 1014 c 0,18,19
 948 1014 948 1014 1066 875.5 c 128,-1,20
 1184 737 1184 737 1184 489 c 0,21,22
 1184 250 1184 250 1065 105.5 c 128,-1,23
 946 -39 946 -39 752 -39 c 0,24,25
 635 -39 635 -39 553.5 4.5 c 128,-1,26
 472 48 472 48 414 141 c 1,27,28
 419 104 419 104 421.5 60.5 c 128,-1,29
 424 17 424 17 424 -39 c 2,30,-1
 424 -446 l 1,31,-1
 139 -446 l 1,12,-1
EndSplineSet
EndChar

StartChar: q
Encoding: 113 113 80
Width: 1262
GlyphClass: 1
Flags: W
LayerCount: 2
Fore
SplineSet
862 492 m 0,0,1
 862 624 862 624 795.5 701 c 128,-1,2
 729 778 729 778 616 778 c 0,3,4
 500 778 500 778 433.5 701.5 c 128,-1,5
 367 625 367 625 367 492 c 256,6,7
 367 359 367 359 432.5 285 c 128,-1,8
 498 211 498 211 614 211 c 0,9,10
 732 211 732 211 797 285 c 128,-1,11
 862 359 862 359 862 492 c 0,0,1
1122 -446 m 1,12,-1
 838 -446 l 1,13,-1
 838 -39 l 2,14,15
 838 8 838 8 841 53.5 c 128,-1,16
 844 99 844 99 850 141 c 1,17,18
 792 48 792 48 710.5 4.5 c 128,-1,19
 629 -39 629 -39 512 -39 c 0,20,21
 317 -39 317 -39 197.5 106 c 128,-1,22
 78 251 78 251 78 489 c 0,23,24
 78 737 78 737 195.5 875.5 c 128,-1,25
 313 1014 313 1014 522 1014 c 0,26,27
 631 1014 631 1014 713.5 965 c 128,-1,28
 796 916 796 916 852 819 c 1,29,-1
 852 981 l 1,30,-1
 1122 981 l 1,31,-1
 1122 -446 l 1,12,-1
EndSplineSet
EndChar

StartChar: r
Encoding: 114 114 81
Width: 834
GlyphClass: 1
Flags: W
LayerCount: 2
Fore
SplineSet
414 729 m 1,0,1
 457 872 457 872 537.5 943 c 128,-1,2
 618 1014 618 1014 737 1014 c 0,3,4
 764 1014 764 1014 826 1004 c 0,5,6
 838 1002 838 1002 844 1001 c 1,7,-1
 801 695 l 1,8,9
 769 708 769 708 736.5 714.5 c 128,-1,10
 704 721 704 721 668 721 c 0,11,12
 538 721 538 721 481 654.5 c 128,-1,13
 424 588 424 588 424 432 c 2,14,-1
 424 0 l 1,15,-1
 139 0 l 1,16,-1
 139 981 l 1,17,-1
 420 981 l 1,18,-1
 414 729 l 1,0,1
EndSplineSet
EndChar

StartChar: s
Encoding: 115 115 82
Width: 934
GlyphClass: 1
Flags: W
LayerCount: 2
Fore
SplineSet
43 172 m 1,0,-1
 262 285 l 1,1,2
 273 228 273 228 321 195 c 128,-1,3
 369 162 369 162 440 162 c 0,4,5
 510 162 510 162 550 187.5 c 128,-1,6
 590 213 590 213 590 258 c 0,7,8
 590 329 590 329 448 377 c 0,9,10
 404 392 404 392 378 402 c 0,11,12
 205 467 205 467 138.5 533 c 128,-1,13
 72 599 72 599 72 696 c 0,14,15
 72 840 72 840 185 929 c 128,-1,16
 298 1018 298 1018 483 1018 c 0,17,18
 615 1018 615 1018 711.5 965 c 128,-1,19
 808 912 808 912 852 815 c 1,20,-1
 643 711 l 1,21,22
 626 766 626 766 584 794.5 c 128,-1,23
 542 823 542 823 479 823 c 256,24,25
 416 823 416 823 377 797 c 128,-1,26
 338 771 338 771 338 729 c 0,27,28
 338 656 338 656 532 593 c 0,29,30
 555 586 555 586 567 582 c 0,31,32
 728 529 728 529 796 458.5 c 128,-1,33
 864 388 864 388 864 279 c 0,34,35
 864 133 864 133 751 47 c 128,-1,36
 638 -39 638 -39 446 -39 c 0,37,38
 294 -39 294 -39 186.5 17.5 c 128,-1,39
 79 74 79 74 43 172 c 1,0,-1
EndSplineSet
EndChar

StartChar: t
Encoding: 116 116 83
Width: 633
GlyphClass: 1
Flags: W
LayerCount: 2
Fore
SplineSet
174 0 m 1,0,-1
 174 758 l 1,1,-1
 37 758 l 1,2,-1
 37 981 l 1,3,-1
 174 981 l 1,4,-1
 174 1307 l 1,5,-1
 459 1307 l 1,6,-1
 459 981 l 1,7,-1
 596 981 l 1,8,-1
 596 758 l 1,9,-1
 459 758 l 1,10,-1
 459 0 l 1,11,-1
 174 0 l 1,0,-1
EndSplineSet
EndChar

StartChar: u
Encoding: 117 117 84
Width: 1268
GlyphClass: 1
Flags: W
LayerCount: 2
Fore
SplineSet
418 981 m 1,0,-1
 418 465 l 2,1,2
 418 335 418 335 468.5 279 c 128,-1,3
 519 223 519 223 633 223 c 0,4,5
 746 223 746 223 797 279.5 c 128,-1,6
 848 336 848 336 848 465 c 2,7,-1
 848 981 l 1,8,-1
 1133 981 l 1,9,-1
 1133 465 l 2,10,11
 1133 206 1133 206 1012 83.5 c 128,-1,12
 891 -39 891 -39 637 -39 c 0,13,14
 378 -39 378 -39 256.5 83 c 128,-1,15
 135 205 135 205 135 465 c 2,16,-1
 135 981 l 1,17,-1
 418 981 l 1,0,-1
EndSplineSet
EndChar

StartChar: v
Encoding: 118 118 85
Width: 1053
GlyphClass: 1
Flags: W
LayerCount: 2
Fore
SplineSet
381 0 m 1,0,-1
 -18 981 l 1,1,-1
 311 981 l 1,2,-1
 477 471 l 2,3,4
 497 409 497 409 509 356 c 128,-1,5
 521 303 521 303 526 252 c 1,6,7
 538 329 538 329 550 383 c 128,-1,8
 562 437 562 437 578 481 c 2,9,-1
 745 981 l 1,10,-1
 1069 981 l 1,11,-1
 666 0 l 1,12,-1
 381 0 l 1,0,-1
EndSplineSet
EndChar

StartChar: w
Encoding: 119 119 86
Width: 1673
GlyphClass: 1
Flags: W
LayerCount: 2
Fore
SplineSet
991 981 m 1,0,-1
 1133 473 l 2,1,2
 1137 458 1137 458 1143.5 420 c 128,-1,3
 1150 382 1150 382 1167 264 c 1,4,5
 1176 310 1176 310 1189.5 361 c 128,-1,6
 1203 412 1203 412 1223 475 c 2,7,-1
 1376 981 l 1,8,-1
 1686 981 l 1,9,-1
 1346 0 l 1,10,-1
 1042 0 l 1,11,-1
 895 508 l 2,12,13
 891 522 891 522 882 553 c 0,14,15
 849 668 849 668 834 741 c 1,16,17
 821 673 821 673 808.5 617 c 128,-1,18
 796 561 796 561 782 512 c 2,19,-1
 631 0 l 1,20,-1
 328 0 l 1,21,-1
 -12 981 l 1,22,-1
 299 981 l 1,23,-1
 449 494 l 2,24,25
 469 428 469 428 482 374.5 c 128,-1,26
 495 321 495 321 504 265 c 1,27,28
 512 326 512 326 523 382.5 c 128,-1,29
 534 439 534 439 549 492 c 2,30,-1
 680 981 l 1,31,-1
 991 981 l 1,0,-1
EndSplineSet
EndChar

StartChar: x
Encoding: 120 120 87
Width: 1020
GlyphClass: 1
Flags: W
LayerCount: 2
Fore
SplineSet
319 0 m 1,0,-1
 -18 0 l 1,1,-1
 330 498 l 1,2,-1
 0 981 l 1,3,-1
 356 981 l 1,4,-1
 453 799 l 2,5,6
 471 764 471 764 485.5 727 c 128,-1,7
 500 690 500 690 512 649 c 1,8,9
 523 687 523 687 539 724.5 c 128,-1,10
 555 762 555 762 578 801 c 2,11,-1
 682 981 l 1,12,-1
 1020 981 l 1,13,-1
 684 504 l 1,14,-1
 1038 0 l 1,15,-1
 684 0 l 1,16,-1
 569 201 l 2,17,18
 549 239 549 239 533.5 276.5 c 128,-1,19
 518 314 518 314 508 352 c 1,20,21
 498 313 498 313 482 276.5 c 128,-1,22
 466 240 466 240 440 199 c 2,23,-1
 319 0 l 1,0,-1
EndSplineSet
EndChar

StartChar: y
Encoding: 121 121 88
Width: 1053
GlyphClass: 1
Flags: W
LayerCount: 2
Fore
SplineSet
381 76 m 1,0,-1
 -14 981 l 1,1,-1
 315 981 l 1,2,-1
 485 532 l 2,3,4
 502 490 502 490 513 435.5 c 128,-1,5
 524 381 524 381 530 314 c 1,6,7
 540 368 540 368 555 424 c 128,-1,8
 570 480 570 480 592 543 c 2,9,-1
 741 981 l 1,10,-1
 1067 981 l 1,11,-1
 483 -446 l 1,12,-1
 168 -446 l 1,13,-1
 381 76 l 1,0,-1
EndSplineSet
EndChar

StartChar: z
Encoding: 122 122 89
Width: 985
GlyphClass: 1
Flags: W
LayerCount: 2
Fore
SplineSet
940 0 m 1,0,-1
 0 0 l 1,1,-1
 520 758 l 1,2,-1
 63 758 l 1,3,-1
 63 981 l 1,4,-1
 952 981 l 1,5,-1
 438 223 l 1,6,-1
 940 223 l 1,7,-1
 940 0 l 1,0,-1
EndSplineSet
EndChar

StartChar: braceleft
Encoding: 123 123 90
Width: 1024
GlyphClass: 1
Flags: W
LayerCount: 2
Fore
SplineSet
883 1477 m 1,0,-1
 883 1268 l 1,1,2
 874 1268 874 1268 858 1269 c 128,-1,3
 842 1270 842 1270 836 1270 c 0,4,5
 735 1270 735 1270 699.5 1231.5 c 128,-1,6
 664 1193 664 1193 664 1069 c 2,7,-1
 664 829 l 2,8,9
 664 681 664 681 619 619 c 128,-1,10
 574 557 574 557 457 530 c 1,11,12
 574 503 574 503 619 442 c 128,-1,13
 664 381 664 381 664 233 c 2,14,-1
 664 -8 l 2,15,16
 664 -131 664 -131 699 -169 c 128,-1,17
 734 -207 734 -207 836 -207 c 0,18,19
 842 -207 842 -207 858 -206 c 128,-1,20
 874 -205 874 -205 883 -205 c 1,21,-1
 883 -414 l 1,22,23
 869 -414 869 -414 844 -415 c 128,-1,24
 819 -416 819 -416 807 -416 c 0,25,26
 707 -416 707 -416 640 -404 c 128,-1,27
 573 -392 573 -392 526 -367 c 0,28,29
 469 -333 469 -333 445.5 -275.5 c 128,-1,30
 422 -218 422 -218 422 -76 c 2,31,-1
 422 176 l 2,32,33
 422 313 422 313 371 370.5 c 128,-1,34
 320 428 320 428 199 428 c 0,35,36
 193 428 193 428 179 427 c 128,-1,37
 165 426 165 426 158 426 c 1,38,-1
 158 635 l 1,39,40
 165 635 165 635 179 634 c 128,-1,41
 193 633 193 633 199 633 c 0,42,43
 319 633 319 633 370.5 691 c 128,-1,44
 422 749 422 749 422 887 c 2,45,-1
 422 1137 l 2,46,47
 422 1280 422 1280 445.5 1338 c 128,-1,48
 469 1396 469 1396 526 1430 c 0,49,50
 573 1455 573 1455 640 1467 c 128,-1,51
 707 1479 707 1479 807 1479 c 0,52,53
 819 1479 819 1479 844 1478 c 128,-1,54
 869 1477 869 1477 883 1477 c 1,0,-1
EndSplineSet
EndChar

StartChar: bar
Encoding: 124 124 91
Width: 1024
GlyphClass: 1
Flags: W
LayerCount: 2
Fore
SplineSet
410 1565 m 1,0,-1
 616 1565 l 1,1,-1
 616 -483 l 1,2,-1
 410 -483 l 1,3,-1
 410 1565 l 1,0,-1
EndSplineSet
EndChar

StartChar: braceright
Encoding: 125 125 92
Width: 1024
GlyphClass: 1
Flags: W
LayerCount: 2
Fore
SplineSet
143 1477 m 1,0,-1
 211 1477 l 2,1,2
 321 1477 321 1477 388 1465 c 128,-1,3
 455 1453 455 1453 500 1427 c 0,4,5
 557 1395 557 1395 580.5 1335.5 c 128,-1,6
 604 1276 604 1276 604 1137 c 2,7,-1
 604 885 l 2,8,9
 604 748 604 748 655 690.5 c 128,-1,10
 706 633 706 633 827 633 c 0,11,12
 833 633 833 633 847 634 c 128,-1,13
 861 635 861 635 868 635 c 1,14,-1
 868 426 l 1,15,-1
 831 426 l 2,16,17
 706 426 706 426 655 370 c 128,-1,18
 604 314 604 314 604 176 c 2,19,-1
 604 -76 l 2,20,21
 604 -219 604 -219 580.5 -277 c 128,-1,22
 557 -335 557 -335 500 -367 c 0,23,24
 453 -392 453 -392 386 -404 c 128,-1,25
 319 -416 319 -416 219 -416 c 0,26,27
 207 -416 207 -416 182 -415 c 128,-1,28
 157 -414 157 -414 143 -414 c 1,29,-1
 143 -205 l 1,30,31
 152 -205 152 -205 168 -206 c 128,-1,32
 184 -207 184 -207 190 -207 c 0,33,34
 291 -207 291 -207 326.5 -168.5 c 128,-1,35
 362 -130 362 -130 362 -8 c 2,36,-1
 362 231 l 2,37,38
 362 381 362 381 407 442.5 c 128,-1,39
 452 504 452 504 569 530 c 1,40,41
 452 557 452 557 407 619 c 128,-1,42
 362 681 362 681 362 829 c 2,43,-1
 362 1071 l 2,44,45
 362 1193 362 1193 326.5 1231.5 c 128,-1,46
 291 1270 291 1270 190 1270 c 0,47,48
 184 1270 184 1270 168 1269 c 128,-1,49
 152 1268 152 1268 143 1268 c 1,50,-1
 143 1477 l 1,0,-1
EndSplineSet
EndChar

StartChar: asciitilde
Encoding: 126 126 93
Width: 1706
GlyphClass: 1
Flags: W
LayerCount: 2
Fore
SplineSet
1530 803 m 1,0,-1
 1530 582 l 1,1,2
 1426 511 1426 511 1333.5 477.5 c 128,-1,3
 1241 444 1241 444 1151 444 c 0,4,5
 1105 444 1105 444 1059 452 c 128,-1,6
 1013 460 1013 460 967 475 c 0,7,8
 943 483 943 483 896 500 c 0,9,10
 677 575 677 575 563 575 c 0,11,12
 478 575 478 575 385.5 537.5 c 128,-1,13
 293 500 293 500 178 418 c 1,14,-1
 178 639 l 1,15,16
 285 711 285 711 382 746.5 c 128,-1,17
 479 782 479 782 565 782 c 0,18,19
 682 782 682 782 856 724 c 0,20,21
 859 723 859 723 860 723 c 0,22,23
 878 717 878 717 915 704 c 0,24,25
 1070 649 1070 649 1155 649 c 256,26,27
 1240 649 1240 649 1330 686 c 128,-1,28
 1420 723 1420 723 1530 803 c 1,0,-1
EndSplineSet
EndChar

StartChar: degree
Encoding: 176 176 94
Width: 674
GlyphClass: 1
Flags: W
LayerCount: 2
Fore
SplineSet
338 1335 m 0,0,1
 265 1335 265 1335 213.5 1284 c 128,-1,2
 162 1233 162 1233 162 1161 c 0,3,4
 162 1087 162 1087 213 1036 c 128,-1,5
 264 985 264 985 338 985 c 0,6,7
 410 985 410 985 461 1037 c 128,-1,8
 512 1089 512 1089 512 1161 c 256,9,10
 512 1233 512 1233 461 1284 c 128,-1,11
 410 1335 410 1335 338 1335 c 0,0,1
338 1464 m 256,12,13
 464 1464 464 1464 552.5 1374.5 c 128,-1,14
 641 1285 641 1285 641 1159 c 0,15,16
 641 1034 641 1034 552 945 c 128,-1,17
 463 856 463 856 336 856 c 0,18,19
 210 856 210 856 122.5 944 c 128,-1,20
 35 1032 35 1032 35 1159 c 256,21,22
 35 1286 35 1286 123.5 1375 c 128,-1,23
 212 1464 212 1464 338 1464 c 256,12,13
EndSplineSet
EndChar

